<svg xmlns="http://www.w3.org/2000/svg" viewBox="0 0 162.79 61.02"><defs><style>.cls-1{fill:#5e5d6d;}.cls-2{fill:#fff;}</style></defs><g id="Layer_2" data-name="Layer 2"><g id="text"><polyline class="cls-1" points="35.62 59.37 37.37 56.91 35.62 56.63 35.62 59.37"/><polyline class="cls-1" points="52.69 47.3 54.44 44.89 58.04 58.36 56.29 60.83 52.69 57.9 52.69 47.3"/><polyline class="cls-1" points="60.9 47.3 62.63 44.83 64.52 44.83 66.23 58.35 64.52 60.83 60.9 47.3"/><polyline class="cls-1" points="80.39 47.3 82.12 44.83 92.61 44.83 92.61 48.12 90.85 50.53 89.19 50.53 89.15 58.32 87.43 60.83 87.67 47.3 80.39 47.3"/><polyline class="cls-1" points="96.56 47.3 98.36 44.83 107.65 44.83 107.65 48.07 105.85 50.53 101.2 50.53 102.91 52.29 106.55 53.72 104.8 56.28 101.75 56.28 101.75 58.33 100.07 60.83 96.56 60.83 96.56 47.3"/><polyline class="cls-1" points="122.03 47.3 123.8 44.79 123.8 48.75 122.03 47.3"/><polyline class="cls-1" points="129.8 47.3 131.52 44.79 131.52 49.01 129.8 47.3"/><polyline class="cls-1" points="135.33 47.3 137.07 44.79 137.07 47.89 135.33 47.3"/><polygon class="cls-1" points="140.65 58.34 138.92 60.83 137.03 58.34 140.65 58.34"/><polyline class="cls-1" points="143.53 47.3 145.22 44.79 148.91 58.34 147.16 60.83 143.53 47.3"/><polyline class="cls-1" points="149.17 47.3 150.96 44.79 150.72 50.53 149.17 47.3"/><polygon class="cls-1" points="113.3 23.25 111.59 25.18 111.59 23.25 113.3 23.25"/><polyline class="cls-1" points="113.43 22.71 115.14 20.18 118.43 32.87 116.71 35.36 113.43 22.71"/><polygon class="cls-1" points="121.61 32.89 125.57 32.89 123.81 35.36 121.61 32.89"/><polyline class="cls-1" points="124.83 22.71 126.56 20.24 129.87 32.89 128.12 35.36 125.89 33.13 124.83 22.71"/><polygon class="cls-1" points="133 32.88 136.95 32.88 135.22 35.36 133 32.88"/><polyline class="cls-1" points="150.07 22.71 151.79 20.24 155.02 32.92 153.36 35.36 151.35 32.7 150.07 22.71"/><polygon class="cls-1" points="162.2 32.89 160.46 35.36 158.25 32.89 162.2 32.89"/><polygon class="cls-1" points="135.36 0.49 133.63 2.96 135.36 2.96 135.36 0.49"/><polygon class="cls-1" points="137.14 16.49 138.88 14.02 137.14 14.02 137.14 16.49"/><path class="cls-1" d="M143.2,10.27,144.88,8l-1.71.24s-1.1,1.25-1,1.54S143.2,10.27,143.2,10.27Z"/><polygon class="cls-1" points="155.83 2.47 157.56 0 160.51 9.15 158.78 11.62 156.4 11.62 155.83 2.47"/><polygon class="cls-1" points="22.02 37.15 23.73 34.68 23.73 32 26.26 32 27.95 29.54 14.91 29.54 14.91 37.15 22.02 37.15"/><polygon class="cls-1" points="79.85 37.15 81.58 34.68 81.58 32.01 84.07 32.01 85.8 29.54 79.85 29.54 79.85 37.15"/><polygon class="cls-1" points="157.61 11.62 156.3 13.58 159.41 15.31 160.65 13.68 157.61 11.62"/><polygon class="cls-1" points="37.36 47.14 35.63 49.61 33.06 51.77 34.66 49.34 37.36 47.14"/><polygon class="cls-1" points="15.02 47.3 16.75 44.83 16.75 47.3 15.02 47.3"/><polygon class="cls-1" points="39.1 44.83 37.37 47.3 39.1 47.3 39.1 44.83"/><polygon class="cls-1" points="2.29 44.83 0.56 47.3 0.56 52.03 2.29 52.03 2.29 44.83"/><polygon class="cls-1" points="5.8 58.36 4.07 60.83 0.56 60.83 2.29 58.36 5.8 58.36"/><polygon class="cls-1" points="21.32 58.36 19.61 60.83 23.39 60.83 25.13 58.36 21.32 58.36"/><polygon class="cls-1" points="15.65 58.36 13.91 60.83 10.11 60.83 11.84 58.36 15.65 58.36"/><polygon class="cls-1" points="29.92 53.08 31.7 50.57 31.7 53.56 29.92 53.56 29.92 53.08"/><polygon class="cls-1" points="48.49 58.36 46.76 60.83 46.76 58.36 48.49 58.36"/><polygon class="cls-1" points="103.19 22.71 104.9 20.18 112.26 28.26 110.48 29.92 113.57 32.91 111.97 35.36 103.19 35.36 103.19 22.71"/><path class="cls-1" d="M13.18,32H0V26.77L15,3.2h7V24.6h4.22V32H22v5.14H13.18Zm1-6.71V17L9,25.3Z"/><path class="cls-1" d="M32.23,33q-3.72-4.7-3.72-12.81a25.16,25.16,0,0,1,1-7.22,16.63,16.63,0,0,1,2.74-5.51,12.07,12.07,0,0,1,4.32-3.49A13,13,0,0,1,42.23,2.7a12.59,12.59,0,0,1,7.25,2.1,13.57,13.57,0,0,1,4.81,6.06A23.48,23.48,0,0,1,56,20.15a23.52,23.52,0,0,1-1.69,9.29,13.57,13.57,0,0,1-4.8,6.09,12.57,12.57,0,0,1-7.27,2.13A12.1,12.1,0,0,1,32.23,33Zm13.1-6.07c.77-1.45,1.15-3.69,1.15-6.74,0-.87,0-1.68-.11-2.43a21.56,21.56,0,0,0-.31-2.14,8.87,8.87,0,0,0-.56-1.78,6.06,6.06,0,0,0-.82-1.34,3.49,3.49,0,0,0-1.09-.87,3,3,0,0,0-1.36-.3,3.44,3.44,0,0,0-3.08,2.19A15,15,0,0,0,38,20.15a22.75,22.75,0,0,0,.41,4.6,7.35,7.35,0,0,0,1.38,3.13,3,3,0,0,0,2.44,1.18A3.45,3.45,0,0,0,45.33,26.89Z"/><path class="cls-1" d="M71,32H57.85V26.77l15-23.57h7V24.6h4.22V32H79.85v5.14H71Zm1-6.71V17L66.83,25.3Z"/><path class="cls-1" d="M107,16.17a6.26,6.26,0,0,1-3.67-3.62,7.61,7.61,0,0,1-.52-2.82,7.68,7.68,0,0,1,.52-2.82,6.32,6.32,0,0,1,1.44-2.21A6.46,6.46,0,0,1,107,3.28a8.16,8.16,0,0,1,5.68,0,6.53,6.53,0,0,1,2.22,1.41,6.41,6.41,0,0,1,1.44,2.21,7.46,7.46,0,0,1,.52,2.83,7.46,7.46,0,0,1-.52,2.83,6.51,6.51,0,0,1-1.44,2.21,6.69,6.69,0,0,1-2.22,1.41,8.09,8.09,0,0,1-5.68,0Zm4.53-3.34a3.19,3.19,0,0,0,1.15-1.29,4,4,0,0,0,.41-1.81,4,4,0,0,0-.41-1.81,3.19,3.19,0,0,0-1.15-1.29,3.06,3.06,0,0,0-1.69-.48,3,3,0,0,0-1.68.48A3.16,3.16,0,0,0,107,7.92a4.2,4.2,0,0,0,0,3.62,3.29,3.29,0,0,0,1.16,1.29,3.2,3.2,0,0,0,3.37,0Z"/><path class="cls-1" d="M122.2,16.17a6.26,6.26,0,0,1-3.67-3.62A7.61,7.61,0,0,1,118,9.73a7.68,7.68,0,0,1,.52-2.82A6.32,6.32,0,0,1,120,4.7a6.46,6.46,0,0,1,2.23-1.42,8.16,8.16,0,0,1,5.68,0,6.53,6.53,0,0,1,2.22,1.41,6.41,6.41,0,0,1,1.44,2.21,7.46,7.46,0,0,1,.52,2.83,7.46,7.46,0,0,1-.52,2.83,6.51,6.51,0,0,1-1.44,2.21,6.69,6.69,0,0,1-2.22,1.41,8.09,8.09,0,0,1-5.68,0Zm4.53-3.34a3.19,3.19,0,0,0,1.15-1.29,4,4,0,0,0,.41-1.81,4,4,0,0,0-.41-1.81,3.19,3.19,0,0,0-1.15-1.29A3.06,3.06,0,0,0,125,6.15a3,3,0,0,0-1.68.48,3.16,3.16,0,0,0-1.16,1.29,4.2,4.2,0,0,0,0,3.62,3.29,3.29,0,0,0,1.16,1.29,3.2,3.2,0,0,0,3.37,0Z"/><path class="cls-1" d="M133.63,3h5.26a6.41,6.41,0,0,1,1.81.23,4.17,4.17,0,0,1,1.39.66,3.92,3.92,0,0,1,1,1,4.33,4.33,0,0,1,.57,1.32,6.5,6.5,0,0,1,.18,1.57,4.72,4.72,0,0,1-.64,2.54,3.81,3.81,0,0,1-1.79,1.55,6.59,6.59,0,0,1-2.71.5h-1.53v4.13h-3.51Zm4.45,6.26a2.31,2.31,0,0,0,1.43-.4A1.33,1.33,0,0,0,140,7.69a1.38,1.38,0,0,0-.5-1.1,2.12,2.12,0,0,0-1.45-.45h-1V9.23Z"/><path class="cls-1" d="M146.63,16.14a7.19,7.19,0,0,1-2.35-1.62L146.33,12a5.18,5.18,0,0,0,1.57,1.13,3.87,3.87,0,0,0,1.51.37,1.3,1.3,0,0,0,.88-.26.81.81,0,0,0,.29-.62.83.83,0,0,0-.33-.68,5.12,5.12,0,0,0-1.38-.62c-.33-.11-.63-.22-.88-.32a8.42,8.42,0,0,1-.83-.38,7,7,0,0,1-.78-.47,4.39,4.39,0,0,1-.65-.59,2.92,2.92,0,0,1-.52-.72,4.22,4.22,0,0,1-.33-.89,4.7,4.7,0,0,1-.12-1.08,3.77,3.77,0,0,1,.58-2.06A4.07,4.07,0,0,1,147,3.35a5.2,5.2,0,0,1,2.32-.57,6.6,6.6,0,0,1,2.57.45,7.51,7.51,0,0,1,2.21,1.35l-2,2.59a8.19,8.19,0,0,0-1.46-.94A2.6,2.6,0,0,0,149.47,6a1.06,1.06,0,0,0-.71.21.76.76,0,0,0-.24.59.88.88,0,0,0,.35.67,4.65,4.65,0,0,0,1.32.68c1.14.44,1.89.76,2.26,1a3.49,3.49,0,0,1,1.65,1.64,3.7,3.7,0,0,1,.28,1.51,5.49,5.49,0,0,1-.16,1.32,3.87,3.87,0,0,1-.45,1.05A4.22,4.22,0,0,1,152.24,16a5.87,5.87,0,0,1-1,.4,7.56,7.56,0,0,1-1,.23,8.26,8.26,0,0,1-1,.07A6.88,6.88,0,0,1,146.63,16.14Z"/><path class="cls-1" d="M156.3,16.15a1.78,1.78,0,0,1-.55-1.3,1.73,1.73,0,0,1,.55-1.27,1.81,1.81,0,0,1,1.31-.54,1.74,1.74,0,0,1,.92.25,1.8,1.8,0,0,1,.68.66,1.7,1.7,0,0,1,.25.9,1.77,1.77,0,0,1-.54,1.3,1.86,1.86,0,0,1-2.62,0Zm-.47-13.68h3.52l-.57,9.15H156.4Z"/><path class="cls-1" d="M103.19,22.71h8.4v3h-5.13v1.9h4v2.94h-4v1.78H112v3h-8.78Z"/><path class="cls-1" d="M119.88,35.36,117.5,31.5h-.79v3.86h-3.28V22.71h5.06a5.67,5.67,0,0,1,2.06.34A3.51,3.51,0,0,1,122,24a4,4,0,0,1,.83,1.42,5.4,5.4,0,0,1,.28,1.8,5.68,5.68,0,0,1-.14,1.27,4.34,4.34,0,0,1-.42,1.06,3.81,3.81,0,0,1-.67.82,3.42,3.42,0,0,1-.91.6v0l2.86,4.37Zm-3.17-6.79h1a2.21,2.21,0,0,0,1.34-.37,1.25,1.25,0,0,0,.51-1.07,1.3,1.3,0,0,0-.48-1,2,2,0,0,0-1.37-.42h-1Z"/><path class="cls-1" d="M131.28,35.36,128.9,31.5h-.78v3.86h-3.29V22.71h5.07a5.61,5.61,0,0,1,2,.34,3.55,3.55,0,0,1,1.45.94,4.12,4.12,0,0,1,.83,1.42,5.66,5.66,0,0,1,.28,1.8,5.14,5.14,0,0,1-.15,1.27,3.67,3.67,0,0,1-.42,1.06A3.61,3.61,0,0,1,132.37,31v0l2.86,4.37Zm-3.16-6.79h1a2.23,2.23,0,0,0,1.35-.37,1.27,1.27,0,0,0,.5-1.07,1.3,1.3,0,0,0-.48-1,2,2,0,0,0-1.37-.42h-1Z"/><path class="cls-1" d="M139.38,35.06a6,6,0,0,1-2.08-1.33A5.77,5.77,0,0,1,136,31.67a7,7,0,0,1-.48-2.63A7.12,7.12,0,0,1,136,26.4a5.86,5.86,0,0,1,1.35-2.06A6,6,0,0,1,139.38,23a7.66,7.66,0,0,1,5.31,0,5.82,5.82,0,0,1,3.43,3.39,7.56,7.56,0,0,1,0,5.3,5.84,5.84,0,0,1-3.43,3.38,7.66,7.66,0,0,1-5.31,0Zm4.24-3.12a3,3,0,0,0,1.08-1.21,3.95,3.95,0,0,0,0-3.38,3,3,0,0,0-1.08-1.21,2.86,2.86,0,0,0-1.58-.45,2.83,2.83,0,0,0-1.57.45,2.88,2.88,0,0,0-1.08,1.21,3.86,3.86,0,0,0,0,3.38,3,3,0,0,0,1.08,1.21,3,3,0,0,0,3.15,0Z"/><path class="cls-1" d="M156.52,35.36l-2.38-3.86h-.78v3.86h-3.29V22.71h5.07a5.7,5.7,0,0,1,2.06.34,3.58,3.58,0,0,1,1.44.94,4.12,4.12,0,0,1,.83,1.42,5.66,5.66,0,0,1,.28,1.8,5.14,5.14,0,0,1-.15,1.27,3.67,3.67,0,0,1-.42,1.06A3.61,3.61,0,0,1,157.61,31v0l2.86,4.37Zm-3.16-6.79h1a2.23,2.23,0,0,0,1.35-.37,1.25,1.25,0,0,0,.51-1.07,1.31,1.31,0,0,0-.49-1,2,2,0,0,0-1.37-.42h-1Z"/><path class="cls-1" d="M.56,47.3H5.82a6.39,6.39,0,0,1,1.81.24A4.17,4.17,0,0,1,9,48.2a3.89,3.89,0,0,1,1,1,4.61,4.61,0,0,1,.58,1.32,6.5,6.5,0,0,1,.18,1.57,4.84,4.84,0,0,1-.64,2.54A3.92,3.92,0,0,1,8.31,56.2a6.79,6.79,0,0,1-2.71.5H4.07v4.13H.56ZM5,53.57a2.31,2.31,0,0,0,1.43-.4A1.36,1.36,0,0,0,7,52a1.45,1.45,0,0,0-.5-1.11A2.17,2.17,0,0,0,5,50.48H4.07v3.09Z"/><path class="cls-1" d="M18.93,58.64H14.59l-.68,2.19h-3.8L15,47.3h3.46l4.91,13.53H19.6Zm-.95-3-1.21-3.88h0L15.52,55.6Z"/><path class="cls-1" d="M28,60.71A6.55,6.55,0,0,1,26,59.84a6,6,0,0,1-2.53-3.32,8.63,8.63,0,0,1-.06-4.65A6.69,6.69,0,0,1,24.31,50a6.29,6.29,0,0,1,1.41-1.5,6.39,6.39,0,0,1,1.93-1,8,8,0,0,1,2.4-.35,7.4,7.4,0,0,1,2,.28,7.31,7.31,0,0,1,2,.85,6.49,6.49,0,0,1,1.61,1.37l-2.56,2.16a4.26,4.26,0,0,0-3-1.26,3.09,3.09,0,0,0-.95.15,2.78,2.78,0,0,0-.85.45,2.83,2.83,0,0,0-.69.73,3.18,3.18,0,0,0-.46,1,4.62,4.62,0,0,0-.17,1.26,4.42,4.42,0,0,0,.22,1.37,3.71,3.71,0,0,0,.63,1.14,2.85,2.85,0,0,0,1,.79,3.32,3.32,0,0,0,1.39.29,4.77,4.77,0,0,0,2-.45V56H29.92V53.08h5.7v6.29a7.91,7.91,0,0,1-2.42,1.17,10.2,10.2,0,0,1-3,.46A8.52,8.52,0,0,1,28,60.71Z"/><path class="cls-1" d="M37.37,47.3h9v3.23H40.87v2h4.3v3.14h-4.3v1.9h5.89v3.22H37.37Z"/><path class="cls-1" d="M64.52,47.3V60.83H60.77l-4.44-7.4h0v7.4h-3.6V47.3h3.64l4.52,7.63h0V47.3Z"/><path class="cls-1" d="M70.28,60.51a6.19,6.19,0,0,1-3.67-3.62,7.91,7.91,0,0,1,0-5.64A6.34,6.34,0,0,1,68,49a6.45,6.45,0,0,1,2.24-1.42,7.76,7.76,0,0,1,2.85-.51,7.9,7.9,0,0,1,2.83.5A6.55,6.55,0,0,1,78.18,49a6.41,6.41,0,0,1,1.44,2.21,8,8,0,0,1,0,5.66,6.37,6.37,0,0,1-1.44,2.2A6.55,6.55,0,0,1,76,60.52a8.24,8.24,0,0,1-5.68,0Zm4.53-3.34A3.19,3.19,0,0,0,76,55.88a4.3,4.3,0,0,0,0-3.62A3.19,3.19,0,0,0,74.81,51a3.06,3.06,0,0,0-1.69-.48,3,3,0,0,0-1.68.48,3.16,3.16,0,0,0-1.16,1.29,4.2,4.2,0,0,0,0,3.62,3.29,3.29,0,0,0,1.16,1.29,3.2,3.2,0,0,0,3.37,0Z"/><path class="cls-1" d="M83.83,50.53H80.39V47.3H90.85v3.23H87.43v10.3h-3.6Z"/><path class="cls-1" d="M96.55,47.3h9.3v3.23h-5.78v2.55h4.73v3.2h-4.73v4.55H96.55Z"/><path class="cls-1" d="M110.73,60.51a6.41,6.41,0,0,1-2.23-1.42,6.57,6.57,0,0,1-1.44-2.2,8.05,8.05,0,0,1,0-5.64A6.51,6.51,0,0,1,108.5,49a6.41,6.41,0,0,1,2.23-1.42,7.8,7.8,0,0,1,2.85-.51,7.9,7.9,0,0,1,2.83.5A6.36,6.36,0,0,1,118.63,49a6.14,6.14,0,0,1,1.44,2.21,8,8,0,0,1,0,5.66,6.1,6.1,0,0,1-1.44,2.2,6.36,6.36,0,0,1-2.22,1.42,7.69,7.69,0,0,1-2.83.5A7.8,7.8,0,0,1,110.73,60.51Zm4.53-3.34a3.19,3.19,0,0,0,1.15-1.29,4.2,4.2,0,0,0,0-3.62A3.19,3.19,0,0,0,115.26,51a3.2,3.2,0,0,0-3.37,0,3.23,3.23,0,0,0-1.16,1.29,4.2,4.2,0,0,0,0,3.62,3.31,3.31,0,0,0,1.17,1.29,3.18,3.18,0,0,0,3.36,0Z"/><path class="cls-1" d="M125.39,60.64a4.8,4.8,0,0,1-3-3,7.4,7.4,0,0,1-.41-2.52V47.3h3.67v7.64a4.07,4.07,0,0,0,.21,1.35,2.06,2.06,0,0,0,.67,1,1.72,1.72,0,0,0,1.13.39,1.89,1.89,0,0,0,1.07-.31,2.09,2.09,0,0,0,.74-.94,3.64,3.64,0,0,0,.28-1.47V47.3h3.64v7.85a7,7,0,0,1-.65,3.09,4.71,4.71,0,0,1-1.95,2,6.27,6.27,0,0,1-3.13.73A6.57,6.57,0,0,1,125.39,60.64Z"/><path class="cls-1" d="M147.16,47.3V60.83H143.4L139,53.43h-.05v7.4h-3.59V47.3H139l4.52,7.63h0V47.3Z"/><path class="cls-1" d="M149.17,47.3H154a7.9,7.9,0,0,1,2.89.51,6.25,6.25,0,0,1,2.23,1.39,6.07,6.07,0,0,1,1.4,2.14,7.91,7.91,0,0,1,0,5.48A5.84,5.84,0,0,1,157,60.34a8.55,8.55,0,0,1-2.94.49h-4.92Zm4.69,10.31a3.44,3.44,0,0,0,1.79-.47,3.21,3.21,0,0,0,1.2-1.28,3.72,3.72,0,0,0,.41-1.77,4,4,0,0,0-.24-1.4,3.77,3.77,0,0,0-.67-1.14,3.25,3.25,0,0,0-1-.75,2.91,2.91,0,0,0-1.24-.27h-1.43v7.08Z"/><path class="cls-2" d="M14.91,29.54H1.73V24.3L16.75.73h7V22.12H28v7.42H23.73v5.14H14.91Zm1-6.72V14.54l-5.19,8.28Z"/><path class="cls-2" d="M34,30.49q-3.72-4.69-3.71-12.81a25.12,25.12,0,0,1,1-7.22A17,17,0,0,1,34,4.94a12.09,12.09,0,0,1,4.33-3.48A12.75,12.75,0,0,1,44,.22a12.65,12.65,0,0,1,7.26,2.1A13.61,13.61,0,0,1,56,8.38a23.32,23.32,0,0,1,1.7,9.3A23.47,23.47,0,0,1,56,27a13.59,13.59,0,0,1-4.8,6.1A12.57,12.57,0,0,1,44,35.19,12.1,12.1,0,0,1,34,30.49Zm13.1-6.07q1.15-2.18,1.15-6.74c0-.87,0-1.68-.11-2.44a21.35,21.35,0,0,0-.31-2.13,8.28,8.28,0,0,0-.56-1.78A6.06,6.06,0,0,0,46.41,10a3.23,3.23,0,0,0-1.09-.87A3,3,0,0,0,44,8.82,3.46,3.46,0,0,0,40.88,11a15,15,0,0,0-1.15,6.68,22.06,22.06,0,0,0,.42,4.6,7.23,7.23,0,0,0,1.37,3.13A3,3,0,0,0,44,26.59,3.45,3.45,0,0,0,47.06,24.42Z"/><path class="cls-2" d="M72.76,29.54H59.58V24.3L74.6.73h7V22.12H85.8v7.42H81.58v5.14H72.76Zm1-6.72V14.54l-5.19,8.28Z"/><path class="cls-2" d="M108.75,13.7a6.26,6.26,0,0,1-3.67-3.62,7.61,7.61,0,0,1-.52-2.82,7.61,7.61,0,0,1,.52-2.82,6.23,6.23,0,0,1,1.44-2.21A6.32,6.32,0,0,1,108.75.81a8.16,8.16,0,0,1,5.68,0,6.21,6.21,0,0,1,3.66,3.62,7.46,7.46,0,0,1,.52,2.83,7.46,7.46,0,0,1-.52,2.83,6.37,6.37,0,0,1-1.44,2.2,6.55,6.55,0,0,1-2.22,1.42,7.9,7.9,0,0,1-2.83.5A7.76,7.76,0,0,1,108.75,13.7Zm4.53-3.34a3.19,3.19,0,0,0,1.15-1.29,4,4,0,0,0,.41-1.81,4,4,0,0,0-.41-1.81,3.19,3.19,0,0,0-1.15-1.29,3.06,3.06,0,0,0-1.69-.48,3,3,0,0,0-1.68.48,3.16,3.16,0,0,0-1.16,1.29,4,4,0,0,0-.41,1.81,4,4,0,0,0,.41,1.81,3.29,3.29,0,0,0,1.16,1.29,3.2,3.2,0,0,0,3.37,0Z"/><path class="cls-2" d="M123.93,13.7a6.26,6.26,0,0,1-3.67-3.62,7.61,7.61,0,0,1-.52-2.82,7.61,7.61,0,0,1,.52-2.82,6.23,6.23,0,0,1,1.44-2.21A6.32,6.32,0,0,1,123.93.81a8.16,8.16,0,0,1,5.68,0,6.21,6.21,0,0,1,3.66,3.62,7.46,7.46,0,0,1,.52,2.83,7.46,7.46,0,0,1-.52,2.83,6.37,6.37,0,0,1-1.44,2.2,6.55,6.55,0,0,1-2.22,1.42,7.9,7.9,0,0,1-2.83.5A7.76,7.76,0,0,1,123.93,13.7Zm4.53-3.34a3.19,3.19,0,0,0,1.15-1.29,4,4,0,0,0,.4-1.81,4,4,0,0,0-.4-1.81,3.19,3.19,0,0,0-1.15-1.29,3.06,3.06,0,0,0-1.69-.48,3,3,0,0,0-1.68.48,3.16,3.16,0,0,0-1.16,1.29,4,4,0,0,0-.41,1.81,4,4,0,0,0,.41,1.81,3.29,3.29,0,0,0,1.16,1.29,3.2,3.2,0,0,0,3.37,0Z"/><path class="cls-2" d="M135.36.49h5.26a6.39,6.39,0,0,1,1.81.24,4.08,4.08,0,0,1,1.39.66,3.92,3.92,0,0,1,1,1,4.33,4.33,0,0,1,.57,1.32,6.5,6.5,0,0,1,.18,1.57,4.84,4.84,0,0,1-.64,2.54,3.92,3.92,0,0,1-1.79,1.55,6.76,6.76,0,0,1-2.71.5h-1.53V14h-3.51Zm4.45,6.27a2.31,2.31,0,0,0,1.43-.4,1.33,1.33,0,0,0,.53-1.14,1.41,1.41,0,0,0-.5-1.11,2.17,2.17,0,0,0-1.45-.44h-.95V6.76Z"/><path class="cls-2" d="M148.37,13.67A7.12,7.12,0,0,1,146,12.05l2.05-2.52a5.35,5.35,0,0,0,1.57,1.13,3.84,3.84,0,0,0,1.51.36,1.3,1.3,0,0,0,.88-.25.81.81,0,0,0,.29-.62.82.82,0,0,0-.33-.68,5.12,5.12,0,0,0-1.38-.62l-.88-.32a8.42,8.42,0,0,1-.83-.38,7,7,0,0,1-.78-.47,4.39,4.39,0,0,1-.65-.59,3.26,3.26,0,0,1-.52-.73,4.49,4.49,0,0,1-.33-.88,4.7,4.7,0,0,1-.12-1.08,3.77,3.77,0,0,1,.58-2.06A4.09,4.09,0,0,1,148.68.87,5.33,5.33,0,0,1,151,.31a6.6,6.6,0,0,1,2.57.45,7.51,7.51,0,0,1,2.21,1.35l-2,2.58a8.26,8.26,0,0,0-1.46-.93,2.6,2.6,0,0,0-1.12-.28,1.07,1.07,0,0,0-.71.21.75.75,0,0,0-.24.59.89.89,0,0,0,.35.67,4.57,4.57,0,0,0,1.32.67,23.59,23.59,0,0,1,2.26,1,3.49,3.49,0,0,1,1.65,1.64,3.87,3.87,0,0,1,.28,1.51A5.4,5.4,0,0,1,156,11a3.8,3.8,0,0,1-.45,1.06,4.06,4.06,0,0,1-.68.81,4.92,4.92,0,0,1-.85.61,5.87,5.87,0,0,1-1,.4,6.2,6.2,0,0,1-1,.22,6.63,6.63,0,0,1-1,.07A6.78,6.78,0,0,1,148.37,13.67Z"/><path class="cls-2" d="M158,13.68a1.79,1.79,0,0,1,0-2.58,1.85,1.85,0,0,1,1.31-.53,1.9,1.9,0,0,1,1.6.91,1.7,1.7,0,0,1,.25.9,1.77,1.77,0,0,1-.54,1.3,1.88,1.88,0,0,1-2.62,0ZM157.56,0h3.52l-.57,9.15h-2.38Z"/><path class="cls-2" d="M104.92,20.24h8.4v3h-5.13v1.9h4V28.1h-4v1.78h5.51v3h-8.78Z"/><path class="cls-2" d="M121.61,32.89,119.22,29h-.78v3.86h-3.28V20.24h5.06a5.67,5.67,0,0,1,2.06.34,3.58,3.58,0,0,1,1.44.94,3.89,3.89,0,0,1,.83,1.42,5.3,5.3,0,0,1,.28,1.79,5.7,5.7,0,0,1-.14,1.28,4.12,4.12,0,0,1-.42,1,3.64,3.64,0,0,1-.67.83,3.59,3.59,0,0,1-.91.6v0l2.86,4.37Zm-3.17-6.79h1a2.28,2.28,0,0,0,1.34-.37,1.25,1.25,0,0,0,.51-1.07,1.3,1.3,0,0,0-.48-1,2,2,0,0,0-1.37-.42h-1Z"/><path class="cls-2" d="M133,32.89,130.63,29h-.78v3.86h-3.29V20.24h5.07a5.65,5.65,0,0,1,2.05.34,3.55,3.55,0,0,1,1.45.94,4.19,4.19,0,0,1,.83,1.42,5.56,5.56,0,0,1,.27,1.79,5.18,5.18,0,0,1-.14,1.28,3.78,3.78,0,0,1-.42,1,3.64,3.64,0,0,1-.67.83,3.54,3.54,0,0,1-.9.6v0L137,32.89Zm-3.16-6.79h1a2.24,2.24,0,0,0,1.34-.37,1.25,1.25,0,0,0,.51-1.07,1.3,1.3,0,0,0-.48-1,2,2,0,0,0-1.37-.42h-1Z"/><path class="cls-2" d="M141.11,32.59A6,6,0,0,1,139,31.26a5.86,5.86,0,0,1-1.35-2.06,7,7,0,0,1-.48-2.63,7.12,7.12,0,0,1,.48-2.64A5.77,5.77,0,0,1,139,21.87a6,6,0,0,1,2.08-1.33,7.66,7.66,0,0,1,5.31,0,5.82,5.82,0,0,1,3.43,3.39,7.53,7.53,0,0,1,0,5.29,5.89,5.89,0,0,1-3.43,3.39,7.66,7.66,0,0,1-5.31,0Zm4.24-3.12a3.09,3.09,0,0,0,1.08-1.21,4,4,0,0,0,0-3.38,3.09,3.09,0,0,0-1.08-1.21,2.86,2.86,0,0,0-1.58-.45,2.83,2.83,0,0,0-1.57.45,2.85,2.85,0,0,0-1.08,1.2,3.7,3.7,0,0,0-.39,1.7,3.66,3.66,0,0,0,.39,1.69,3,3,0,0,0,1.08,1.21,3,3,0,0,0,3.15,0Z"/><path class="cls-2" d="M158.25,32.89,155.87,29h-.78v3.86H151.8V20.24h5.07a5.7,5.7,0,0,1,2.06.34,3.58,3.58,0,0,1,1.44.94,4,4,0,0,1,.83,1.42,5.56,5.56,0,0,1,.28,1.79,5.17,5.17,0,0,1-.15,1.28,3.5,3.5,0,0,1-.42,1,3.39,3.39,0,0,1-.67.83,3.54,3.54,0,0,1-.9.6v0l2.86,4.37Zm-3.16-6.79h1a2.3,2.3,0,0,0,1.35-.37,1.25,1.25,0,0,0,.51-1.07,1.31,1.31,0,0,0-.49-1,2,2,0,0,0-1.37-.42h-1Z"/><path class="cls-2" d="M2.29,44.83H7.55a6.79,6.79,0,0,1,1.81.23,4.59,4.59,0,0,1,1.39.66,4.09,4.09,0,0,1,1,1,4.61,4.61,0,0,1,.58,1.32,6.45,6.45,0,0,1,.18,1.57,4.84,4.84,0,0,1-.64,2.54A3.92,3.92,0,0,1,10,53.73a6.79,6.79,0,0,1-2.71.5H5.8v4.13H2.29ZM6.74,51.1a2.38,2.38,0,0,0,1.43-.4,1.37,1.37,0,0,0,.53-1.15,1.43,1.43,0,0,0-.5-1.1A2.17,2.17,0,0,0,6.75,48h-1V51.1Z"/><path class="cls-2" d="M20.66,56.17H16.32l-.68,2.19H11.85l4.9-13.53h3.46l4.91,13.53H21.34Zm-.95-3L18.5,49.25h0l-1.21,3.88Z"/><path class="cls-2" d="M29.7,58.24a6.81,6.81,0,0,1-1.94-.87A6.34,6.34,0,0,1,26.23,56a6,6,0,0,1-1-1.93,7.82,7.82,0,0,1-.36-2.42,8.52,8.52,0,0,1,.29-2.23A7,7,0,0,1,26,47.48,6.29,6.29,0,0,1,27.45,46a6.17,6.17,0,0,1,1.93-1,7.74,7.74,0,0,1,2.4-.35,7.4,7.4,0,0,1,2,.28,7.31,7.31,0,0,1,2,.85,6.29,6.29,0,0,1,1.61,1.37L34.8,49.3a4.26,4.26,0,0,0-3-1.26,3.09,3.09,0,0,0-.95.15,2.78,2.78,0,0,0-.85.45,3,3,0,0,0-.69.72,3.35,3.35,0,0,0-.46,1,4.52,4.52,0,0,0-.17,1.26A4.42,4.42,0,0,0,28.87,53a3.71,3.71,0,0,0,.63,1.14,3,3,0,0,0,1,.79,3.32,3.32,0,0,0,1.39.28,4.76,4.76,0,0,0,2-.44V53.52H31.65V50.6h5.7v6.3a7.68,7.68,0,0,1-2.42,1.16,9.88,9.88,0,0,1-3,.46A8.52,8.52,0,0,1,29.7,58.24Z"/><path class="cls-2" d="M39.1,44.83h9v3.23H42.6v2h4.3v3.14H42.6v1.91h5.89v3.22H39.1Z"/><path class="cls-2" d="M66.25,44.83V58.36H62.5L58.06,51h0v7.4h-3.6V44.83h3.64l4.52,7.62h.05V44.83Z"/><path class="cls-2" d="M72,58a6.26,6.26,0,0,1-3.67-3.62,7.91,7.91,0,0,1,0-5.64,6.23,6.23,0,0,1,1.44-2.21A6.32,6.32,0,0,1,72,45.15a7.76,7.76,0,0,1,2.85-.51,7.9,7.9,0,0,1,2.83.5,6.55,6.55,0,0,1,2.22,1.42,6.47,6.47,0,0,1,1.44,2.2,8,8,0,0,1,0,5.67,6.47,6.47,0,0,1-1.44,2.2A6.38,6.38,0,0,1,77.69,58,8.16,8.16,0,0,1,72,58Zm4.53-3.34a3.19,3.19,0,0,0,1.15-1.29,4.3,4.3,0,0,0,0-3.62,3.19,3.19,0,0,0-1.15-1.29,3.23,3.23,0,0,0-3.37,0A3.25,3.25,0,0,0,72,49.79a4.2,4.2,0,0,0,0,3.62,3.29,3.29,0,0,0,1.16,1.29,3.2,3.2,0,0,0,3.37,0Z"/><path class="cls-2" d="M85.56,48.06H82.12V44.83H92.58v3.23H89.16v10.3h-3.6Z"/><path class="cls-2" d="M98.29,44.83h9.29v3.23H101.8V50.6h4.73v3.21H101.8v4.55H98.29Z"/><path class="cls-2" d="M112.46,58a6.41,6.41,0,0,1-2.23-1.42,6.57,6.57,0,0,1-1.44-2.2,8.05,8.05,0,0,1,0-5.64,6.51,6.51,0,0,1,1.44-2.21,6.41,6.41,0,0,1,2.23-1.42,7.8,7.8,0,0,1,2.85-.51,7.9,7.9,0,0,1,2.83.5,6.36,6.36,0,0,1,2.22,1.42,6.19,6.19,0,0,1,1.44,2.2,8,8,0,0,1,0,5.67A6.23,6.23,0,0,1,118.14,58a7.69,7.69,0,0,1-2.83.51A7.8,7.8,0,0,1,112.46,58ZM117,54.7a3.12,3.12,0,0,0,1.15-1.29,4.2,4.2,0,0,0,0-3.62A3.12,3.12,0,0,0,117,48.5a3.05,3.05,0,0,0-1.68-.48,3.14,3.14,0,0,0-1.69.47,3.23,3.23,0,0,0-1.15,1.3,4.11,4.11,0,0,0,0,3.62,3.21,3.21,0,0,0,1.16,1.29,3.18,3.18,0,0,0,3.36,0Z"/><path class="cls-2" d="M127.12,58.17a4.8,4.8,0,0,1-3-3,7.4,7.4,0,0,1-.41-2.52V44.83h3.67v7.64a4.07,4.07,0,0,0,.21,1.35,2.18,2.18,0,0,0,.67,1,1.72,1.72,0,0,0,1.13.39,1.94,1.94,0,0,0,1.07-.31,2.09,2.09,0,0,0,.74-.94,3.64,3.64,0,0,0,.28-1.47V44.83h3.64v7.85a7,7,0,0,1-.65,3.09,4.76,4.76,0,0,1-2,2,6.27,6.27,0,0,1-3.13.73A6.8,6.8,0,0,1,127.12,58.17Z"/><path class="cls-2" d="M148.89,44.83V58.36h-3.76L140.7,51h0v7.4h-3.59V44.83h3.64l4.52,7.62h0V44.83Z"/><path class="cls-2" d="M150.9,44.83h4.87a8.12,8.12,0,0,1,2.89.5,6.55,6.55,0,0,1,2.23,1.39,6.21,6.21,0,0,1,1.4,2.15,7.91,7.91,0,0,1,0,5.48A6.19,6.19,0,0,1,161,56.48a6,6,0,0,1-2.2,1.38,8.3,8.3,0,0,1-2.93.5H150.9Zm4.69,10.31a3.44,3.44,0,0,0,1.79-.47,3.21,3.21,0,0,0,1.2-1.28,3.72,3.72,0,0,0,.41-1.77,4.09,4.09,0,0,0-.24-1.41,3.72,3.72,0,0,0-.67-1.13,2.86,2.86,0,0,0-1-.75,2.91,2.91,0,0,0-1.24-.27h-1.43v7.08Z"/></g></g></svg>