<svg xmlns="http://www.w3.org/2000/svg" xmlns:xlink="http://www.w3.org/1999/xlink" viewBox="0 0 1926.05 1080"><defs><style>.cls-1{isolation:isolate;}.cls-2{fill:#0a092b;}.cls-3,.cls-5,.cls-6{fill:#fff;}.cls-4{opacity:0.8;mix-blend-mode:soft-light;}.cls-5{opacity:0.28;}.cls-6{opacity:0.57;}.cls-7{fill:url(#Degradado_sin_nombre_157);}.cls-8{fill:url(#Degradado_sin_nombre_157-2);}.cls-9{fill:url(#Degradado_sin_nombre_157-3);}</style><linearGradient id="Degradado_sin_nombre_157" x1="818.76" y1="1250.63" x2="904.57" y2="1250.63" gradientTransform="matrix(0.9, -0.43, 0.43, 0.9, -207.23, -374.36)" gradientUnits="userSpaceOnUse"><stop offset="0" stop-color="#fff"/><stop offset="0.11" stop-color="#fff" stop-opacity="0.79"/><stop offset="0.24" stop-color="#fff" stop-opacity="0.58"/><stop offset="0.37" stop-color="#fff" stop-opacity="0.4"/><stop offset="0.5" stop-color="#fff" stop-opacity="0.26"/><stop offset="0.63" stop-color="#fff" stop-opacity="0.14"/><stop offset="0.75" stop-color="#fff" stop-opacity="0.06"/><stop offset="0.88" stop-color="#fff" stop-opacity="0.02"/><stop offset="1" stop-color="#fff" stop-opacity="0"/></linearGradient><linearGradient id="Degradado_sin_nombre_157-2" x1="1079.09" y1="1539.79" x2="1138.2" y2="1539.79" xlink:href="#Degradado_sin_nombre_157"/><linearGradient id="Degradado_sin_nombre_157-3" x1="1248.88" y1="1225.17" x2="1419.2" y2="1225.17" xlink:href="#Degradado_sin_nombre_157"/></defs><g class="cls-1"><g id="Layer_2" data-name="Layer 2"><g id="Layer_6" data-name="Layer 6"><rect class="cls-2" width="1926.05" height="1080"/><path class="cls-3" d="M107.35,84c0,2.21-2.11,4-4.72,4s-4.72-1.78-4.72-4,2.11-4,4.72-4S107.35,81.82,107.35,84Z"/><path class="cls-3" d="M243.67,108.63c0,2.2-2.12,4-4.72,4s-4.72-1.79-4.72-4,2.11-4,4.72-4S243.67,106.43,243.67,108.63Z"/><path class="cls-3" d="M12.1,38.83c0,2.2-2.11,4-4.72,4s-4.72-1.79-4.72-4,2.12-4,4.72-4S12.1,36.63,12.1,38.83Z"/><path class="cls-3" d="M587,97.34c0,2.2-2.11,4-4.72,4s-4.71-1.79-4.71-4,2.11-4,4.71-4S587,95.14,587,97.34Z"/><path class="cls-3" d="M155.52,54.19a2.39,2.39,0,1,1-2.36-2A2.2,2.2,0,0,1,155.52,54.19Z"/><path class="cls-3" d="M252.57,43.92a2.39,2.39,0,1,1-2.36-2A2.2,2.2,0,0,1,252.57,43.92Z"/><path class="cls-3" d="M154.63,165.82a2.39,2.39,0,1,1-2.36-2A2.2,2.2,0,0,1,154.63,165.82Z"/><ellipse class="cls-3" cx="200.45" cy="189.28" rx="1.31" ry="1.1"/><ellipse class="cls-3" cx="272.26" cy="152.54" rx="1.31" ry="1.1"/><ellipse class="cls-3" cx="242.57" cy="177.15" rx="1.31" ry="1.1"/><ellipse class="cls-3" cx="226.27" cy="196.2" rx="1.31" ry="1.1"/><ellipse class="cls-3" cx="227.86" cy="165.3" rx="1.31" ry="1.1"/><ellipse class="cls-3" cx="91.09" cy="236.55" rx="2.36" ry="1.99"/><ellipse class="cls-3" cx="468.92" cy="38.07" rx="2.36" ry="1.99"/><path class="cls-3" d="M104.76,379.51c0,2.2-2.11,4-4.72,4s-4.71-1.79-4.71-4,2.11-4,4.71-4S104.76,377.31,104.76,379.51Z"/><path class="cls-3" d="M69,588.59c0,2.2-2.11,4-4.71,4s-4.72-1.78-4.72-4,2.11-4,4.72-4S69,586.38,69,588.59Z"/><path class="cls-3" d="M446.05,281.92c0,2.2-2.11,4-4.72,4s-4.71-1.78-4.71-4,2.11-4,4.71-4S446.05,279.72,446.05,281.92Z"/><g class="cls-4"><polygon class="cls-5" points="439.95 281.58 441.86 233.79 443.01 281.26 442.63 334.55 439.95 281.58"/><polygon class="cls-5" points="441.87 280.62 498.42 282.23 442.25 283.2 379.2 282.88 441.87 280.62"/><polygon class="cls-6" points="440.5 280.93 472.05 258.19 442.22 282.17 407.91 308.32 440.5 280.93"/><polygon class="cls-6" points="442.07 281.32 468.98 307.99 440.6 282.78 409.65 253.78 442.07 281.32"/></g><path class="cls-3" d="M760.67,173.6c0,2.2-2.11,4-4.72,4s-4.72-1.79-4.72-4,2.12-4,4.72-4S760.67,171.4,760.67,173.6Z"/><ellipse class="cls-3" cx="349.22" cy="180.11" rx="2.36" ry="1.99"/><path class="cls-3" d="M7.21,359.8a2.21,2.21,0,0,1-2.36,2,2,2,0,1,1,0-4A2.2,2.2,0,0,1,7.21,359.8Z"/><path class="cls-3" d="M329.5,292.53a2.39,2.39,0,1,1-2.36-2A2.2,2.2,0,0,1,329.5,292.53Z"/><path class="cls-3" d="M401.15,425.19a2.39,2.39,0,1,1-2.36-2A2.2,2.2,0,0,1,401.15,425.19Z"/><path class="cls-3" d="M231.55,414.43a2.39,2.39,0,1,1-2.36-2A2.19,2.19,0,0,1,231.55,414.43Z"/><path class="cls-3" d="M17.89,186.77a2.19,2.19,0,0,1-2.35,2,2,2,0,1,1,0-4A2.19,2.19,0,0,1,17.89,186.77Z"/><path class="cls-3" d="M261.62,482.46a2.39,2.39,0,1,1-2.36-2A2.2,2.2,0,0,1,261.62,482.46Z"/><ellipse class="cls-3" cx="277.38" cy="437.89" rx="1.31" ry="1.1"/><ellipse class="cls-3" cx="349.19" cy="401.15" rx="1.31" ry="1.1"/><ellipse class="cls-3" cx="485.23" cy="315.43" rx="1.31" ry="1.1"/><ellipse class="cls-3" cx="319.49" cy="425.77" rx="1.31" ry="1.1"/><ellipse class="cls-3" cx="341.71" cy="472.82" rx="1.31" ry="1.1"/><ellipse class="cls-3" cx="428.15" cy="472.54" rx="1.31" ry="1.1"/><ellipse class="cls-3" cx="610.8" cy="418.79" rx="1.31" ry="1.1"/><ellipse class="cls-3" cx="303.2" cy="444.81" rx="1.31" ry="1.1"/><ellipse class="cls-3" cx="433.04" cy="531.81" rx="1.31" ry="1.1"/><path class="cls-3" d="M305,412.83a1.13,1.13,0,0,1,1,1.3,1.33,1.33,0,0,1-1.54.87,1.13,1.13,0,0,1-1-1.3A1.32,1.32,0,0,1,305,412.83Z"/><ellipse class="cls-3" cx="270.38" cy="574.75" rx="1.31" ry="1.1"/><ellipse class="cls-3" cx="224.97" cy="319.67" rx="1.31" ry="1.1"/><ellipse class="cls-3" cx="308.77" cy="346.02" rx="1.31" ry="1.1"/><ellipse class="cls-3" cx="132.96" cy="340.24" rx="1.31" ry="1.1"/><ellipse class="cls-3" cx="7.7" cy="566.53" rx="1.31" ry="1.1"/><ellipse class="cls-3" cx="104.91" cy="559.64" rx="1.31" ry="1.1"/><ellipse class="cls-3" cx="168.02" cy="485.16" rx="2.36" ry="1.99"/><path class="cls-3" d="M123.9,647.23a2.39,2.39,0,1,1-2.36-2A2.21,2.21,0,0,1,123.9,647.23Z"/><path class="cls-3" d="M692.19,84c0,2.21-2.12,4-4.72,4s-4.72-1.78-4.72-4,2.11-4,4.72-4S692.19,81.82,692.19,84Z"/><ellipse class="cls-3" cx="943.56" cy="81.05" rx="4.72" ry="3.99"/><path class="cls-3" d="M596.94,38.83c0,2.2-2.12,4-4.72,4s-4.72-1.79-4.72-4,2.11-4,4.72-4S596.94,36.63,596.94,38.83Z"/><path class="cls-3" d="M1171.84,97.34c0,2.2-2.11,4-4.72,4s-4.72-1.79-4.72-4,2.12-4,4.72-4S1171.84,95.14,1171.84,97.34Z"/><ellipse class="cls-3" cx="737.99" cy="54.19" rx="2.36" ry="1.99"/><path class="cls-3" d="M837.41,43.92a2.39,2.39,0,1,1-2.36-2A2.2,2.2,0,0,1,837.41,43.92Z"/><path class="cls-3" d="M739.46,165.82a2.39,2.39,0,1,1-2.36-2A2.19,2.19,0,0,1,739.46,165.82Z"/><ellipse class="cls-3" cx="668.43" cy="292.13" rx="1.31" ry="1.1"/><ellipse class="cls-3" cx="857.1" cy="152.54" rx="1.31" ry="1.1"/><ellipse class="cls-3" cx="827.4" cy="177.15" rx="1.31" ry="1.1"/><ellipse class="cls-3" cx="811.11" cy="196.2" rx="1.31" ry="1.1"/><ellipse class="cls-3" cx="474.74" cy="178.11" rx="1.31" ry="1.1"/><path class="cls-3" d="M678.29,236.55a2.39,2.39,0,1,1-2.36-2A2.19,2.19,0,0,1,678.29,236.55Z"/><path class="cls-3" d="M1056.12,38.07a2.39,2.39,0,0,1-4.72,0,2.39,2.39,0,0,1,4.72,0Z"/><path class="cls-3" d="M693.32,496.6c0,2.2-2.12,4-4.72,4s-4.72-1.78-4.72-4,2.11-4,4.72-4S693.32,494.39,693.32,496.6Z"/><path class="cls-3" d="M581.6,513.42c0,2.2-2.11,4-4.72,4s-4.71-1.79-4.71-4,2.11-4,4.71-4S581.6,511.22,581.6,513.42Z"/><path class="cls-3" d="M409.32,674.73c0,2.2-2.11,4-4.72,4s-4.72-1.79-4.72-4,2.12-4,4.72-4S409.32,672.53,409.32,674.73Z"/><path class="cls-3" d="M1030.89,281.92c0,2.2-2.11,4-4.72,4s-4.71-1.78-4.71-4,2.11-4,4.71-4S1030.89,279.72,1030.89,281.92Z"/><ellipse class="cls-3" cx="1340.79" cy="173.6" rx="4.72" ry="3.99"/><ellipse class="cls-3" cx="983.63" cy="166.56" rx="2.36" ry="1.99"/><path class="cls-3" d="M592,359.8a2.39,2.39,0,1,1-2.35-2A2.2,2.2,0,0,1,592,359.8Z"/><ellipse class="cls-3" cx="826.03" cy="252.61" rx="2.36" ry="1.99"/><ellipse class="cls-3" cx="1133.22" cy="311.03" rx="2.36" ry="1.99"/><path class="cls-3" d="M816.39,414.43a2.39,2.39,0,1,1-2.36-2A2.2,2.2,0,0,1,816.39,414.43Z"/><path class="cls-3" d="M602.73,186.77a2.39,2.39,0,1,1-2.36-2A2.19,2.19,0,0,1,602.73,186.77Z"/><path class="cls-3" d="M794.08,470.6a2.39,2.39,0,1,1-2.36-2A2.2,2.2,0,0,1,794.08,470.6Z"/><ellipse class="cls-3" cx="862.22" cy="437.89" rx="1.31" ry="1.1"/><ellipse class="cls-3" cx="934.03" cy="401.15" rx="1.31" ry="1.1"/><ellipse class="cls-3" cx="1070.06" cy="315.43" rx="1.31" ry="1.1"/><ellipse class="cls-3" cx="1046.43" cy="250.35" rx="1.31" ry="1.1"/><ellipse class="cls-3" cx="926.55" cy="472.82" rx="1.31" ry="1.1"/><ellipse class="cls-3" cx="1200" cy="226.62" rx="1.31" ry="1.1"/><ellipse class="cls-3" cx="1195.64" cy="418.79" rx="1.31" ry="1.1"/><ellipse class="cls-3" cx="774.09" cy="613.89" rx="1.31" ry="1.1"/><ellipse class="cls-3" cx="934.33" cy="547.54" rx="1.31" ry="1.1"/><ellipse class="cls-3" cx="235.69" cy="82.2" rx="1.31" ry="1.1"/><ellipse class="cls-3" cx="1017.88" cy="531.81" rx="1.31" ry="1.1"/><ellipse class="cls-3" cx="1057.13" cy="514.52" rx="1.31" ry="1.1"/><ellipse class="cls-3" cx="1049.66" cy="493.5" rx="1.31" ry="1.1"/><path class="cls-3" d="M889.88,412.83a1.13,1.13,0,0,1,1,1.3,1.33,1.33,0,0,1-1.54.87,1.13,1.13,0,0,1-1-1.3A1.32,1.32,0,0,1,889.88,412.83Z"/><ellipse class="cls-3" cx="758.07" cy="628.78" rx="1.31" ry="1.1"/><ellipse class="cls-3" cx="809.81" cy="319.67" rx="1.31" ry="1.1"/><ellipse class="cls-3" cx="893.61" cy="346.02" rx="1.31" ry="1.1"/><ellipse class="cls-3" cx="1617.31" cy="236.09" rx="1.31" ry="1.1"/><ellipse class="cls-3" cx="1689.12" cy="199.35" rx="1.31" ry="1.1"/><ellipse class="cls-3" cx="1681.64" cy="271.02" rx="1.31" ry="1.1"/><path class="cls-3" d="M1645,211a1.13,1.13,0,0,1,1,1.3,1.32,1.32,0,0,1-1.54.87,1.11,1.11,0,0,1-1-1.3A1.31,1.31,0,0,1,1645,211Z"/><ellipse class="cls-3" cx="1648.7" cy="144.23" rx="1.31" ry="1.1"/><ellipse class="cls-3" cx="717.8" cy="340.24" rx="1.31" ry="1.1"/><ellipse class="cls-3" cx="1668.77" cy="84.9" rx="1.31" ry="1.1"/><path class="cls-3" d="M1653.05,287c-.45,2.17-2.9,3.62-5.47,3.24s-4.28-2.45-3.83-4.62,2.9-3.61,5.47-3.23S1653.5,284.78,1653.05,287Z"/><path class="cls-3" d="M1674.85,204.67c0,2.21-2.12,4-4.72,4s-4.72-1.78-4.72-4,2.11-4,4.72-4S1674.85,202.47,1674.85,204.67Z"/><path class="cls-3" d="M1828.73,45.38a2.39,2.39,0,1,1-2.36-2A2.2,2.2,0,0,1,1828.73,45.38Z"/><ellipse class="cls-3" cx="1814.37" cy="207.2" rx="2.36" ry="1.99"/><path class="cls-3" d="M1756.61,304.71a2.39,2.39,0,1,1-2.36-2A2.2,2.2,0,0,1,1756.61,304.71Z"/><ellipse class="cls-3" cx="1862.56" cy="230.66" rx="1.31" ry="1.1"/><path class="cls-3" d="M1890.22,205.6a1.13,1.13,0,0,1,1,1.3,1.31,1.31,0,0,1-1.54.86,1.11,1.11,0,0,1-1-1.29A1.3,1.3,0,0,1,1890.22,205.6Z"/><path class="cls-3" d="M1811.46,112.44a1.33,1.33,0,1,1-1.31-1.11A1.22,1.22,0,0,1,1811.46,112.44Z"/><path class="cls-3" d="M1895.26,138.79a1.33,1.33,0,1,1-1.31-1.1A1.23,1.23,0,0,1,1895.26,138.79Z"/><ellipse class="cls-3" cx="1718.14" cy="133" rx="1.31" ry="1.1"/><ellipse class="cls-3" cx="592.54" cy="566.53" rx="1.31" ry="1.1"/><ellipse class="cls-3" cx="689.75" cy="559.64" rx="1.31" ry="1.1"/><ellipse class="cls-3" cx="534.87" cy="523.75" rx="2.36" ry="1.99"/><ellipse class="cls-3" cx="628.05" cy="670.22" rx="2.36" ry="1.99"/><ellipse class="cls-3" cx="1661.84" cy="432.34" rx="1.31" ry="1.1"/><path class="cls-3" d="M1688.83,507.69c0,2.2-2.11,4-4.72,4s-4.72-1.78-4.72-4,2.11-4,4.72-4S1688.83,505.49,1688.83,507.69Z"/><path class="cls-3" d="M1867.42,428a2.39,2.39,0,1,1-2.36-2A2.19,2.19,0,0,1,1867.42,428Z"/><ellipse class="cls-3" cx="1804.94" cy="525.48" rx="2.36" ry="1.99"/><ellipse class="cls-3" cx="1643.58" cy="580.08" rx="1.31" ry="1.1"/><ellipse class="cls-3" cx="1740.78" cy="573.19" rx="1.31" ry="1.1"/><path class="cls-3" d="M1681.44,683.76a2.39,2.39,0,1,1-2.36-2A2.2,2.2,0,0,1,1681.44,683.76Z"/><path class="cls-3" d="M1316.44,235.27a2.39,2.39,0,1,1-2.35-2A2.19,2.19,0,0,1,1316.44,235.27Z"/><ellipse class="cls-3" cx="1245.41" cy="361.58" rx="1.31" ry="1.1"/><ellipse class="cls-3" cx="1434.08" cy="221.99" rx="1.31" ry="1.1"/><ellipse class="cls-3" cx="983.63" cy="88.97" rx="1.31" ry="1.1"/><ellipse class="cls-3" cx="1541.91" cy="70.86" rx="1.31" ry="1.1"/><ellipse class="cls-3" cx="1405.68" cy="131.86" rx="1.31" ry="1.1"/><ellipse class="cls-3" cx="1388.09" cy="265.65" rx="1.31" ry="1.1"/><path class="cls-3" d="M1080.18,229.75a1.29,1.29,0,0,1-1.49-.92,1.16,1.16,0,0,1,1.1-1.26,1.3,1.3,0,0,1,1.49.93A1.15,1.15,0,0,1,1080.18,229.75Z"/><path class="cls-3" d="M1255.27,306a2.39,2.39,0,1,1-2.36-2A2.19,2.19,0,0,1,1255.27,306Z"/><ellipse class="cls-3" cx="505.79" cy="69.76" rx="2.36" ry="1.99"/><path class="cls-3" d="M1214.77,563.59c0,2.21-2.11,4-4.71,4s-4.72-1.78-4.72-4,2.11-4,4.72-4S1214.77,561.39,1214.77,563.59Z"/><path class="cls-3" d="M841.39,607.37c0,2.2-2.11,4-4.71,4s-4.72-1.78-4.72-4,2.11-4,4.72-4S841.39,605.17,841.39,607.37Z"/><path class="cls-3" d="M1031.73,620.66c0,2.2-2.11,4-4.72,4s-4.72-1.79-4.72-4,2.11-4,4.72-4S1031.73,618.46,1031.73,620.66Z"/><path class="cls-3" d="M838.1,681.92c0,2.2-2.11,4-4.72,4s-4.72-1.79-4.72-4,2.12-4,4.72-4S838.1,679.72,838.1,681.92Z"/><path class="cls-3" d="M986.94,702.67c0,2.2-2.11,4-4.72,4s-4.72-1.79-4.72-4,2.11-4,4.72-4S986.94,700.47,986.94,702.67Z"/><path class="cls-3" d="M755.78,540.76c0,2.2-2.11,4-4.71,4s-4.72-1.78-4.72-4,2.11-4,4.72-4S755.78,538.55,755.78,540.76Z"/><path class="cls-3" d="M1607.87,351.37c0,2.2-2.11,4-4.72,4s-4.71-1.78-4.71-4,2.11-4,4.71-4S1607.87,349.17,1607.87,351.37Z"/><path class="cls-3" d="M1922.49,243.05c0,2.2-2.11,4-4.72,4s-4.72-1.79-4.72-4,2.11-4,4.72-4S1922.49,240.85,1922.49,243.05Z"/><path class="cls-3" d="M1563,236a2.39,2.39,0,1,1-2.36-2A2.21,2.21,0,0,1,1563,236Z"/><path class="cls-3" d="M1169,429.25a2.39,2.39,0,1,1-2.35-2A2.2,2.2,0,0,1,1169,429.25Z"/><ellipse class="cls-3" cx="1520.54" cy="121.42" rx="2.36" ry="1.99"/><ellipse class="cls-3" cx="1491.16" cy="51.97" rx="2.36" ry="1.99"/><path class="cls-3" d="M1712.56,380.48a2.39,2.39,0,1,1-2.36-2A2.21,2.21,0,0,1,1712.56,380.48Z"/><ellipse class="cls-3" cx="1448.11" cy="327.1" rx="2.36" ry="1.99"/><ellipse class="cls-3" cx="1177.35" cy="256.22" rx="2.36" ry="1.99"/><path class="cls-3" d="M1333.24,581.39a2.39,2.39,0,1,1-2.35-2A2.19,2.19,0,0,1,1333.24,581.39Z"/><ellipse class="cls-3" cx="1439.2" cy="507.34" rx="1.31" ry="1.1"/><ellipse class="cls-3" cx="1511.01" cy="470.6" rx="1.31" ry="1.1"/><ellipse class="cls-3" cx="1647.05" cy="384.88" rx="1.31" ry="1.1"/><ellipse class="cls-3" cx="1596.42" cy="329.77" rx="1.31" ry="1.1"/><path class="cls-3" d="M1371.34,449.85c0,2.2-2.11,4-4.71,4s-4.72-1.79-4.72-4,2.11-4,4.72-4S1371.34,447.65,1371.34,449.85Z"/><path class="cls-3" d="M1180.64,818.77c0,2.2-2.11,4-4.72,4s-4.71-1.78-4.71-4,2.11-4,4.71-4S1180.64,816.56,1180.64,818.77Z"/><ellipse class="cls-3" cx="1226.02" cy="863.11" rx="2.36" ry="1.99"/><ellipse class="cls-3" cx="1472.76" cy="799.12" rx="2.36" ry="1.99"/><ellipse class="cls-3" cx="1306.39" cy="842.78" rx="1.31" ry="1.1"/><ellipse class="cls-3" cx="1376.13" cy="755.46" rx="1.31" ry="1.1"/><ellipse class="cls-3" cx="1447.05" cy="751.48" rx="1.31" ry="1.1"/><ellipse class="cls-3" cx="1139.92" cy="769.54" rx="1.31" ry="1.1"/><ellipse class="cls-3" cx="1776.98" cy="296.07" rx="1.31" ry="1.1"/><ellipse class="cls-3" cx="1772.62" cy="488.24" rx="1.31" ry="1.1"/><ellipse class="cls-3" cx="1384.31" cy="840.67" rx="1.31" ry="1.1"/><ellipse class="cls-3" cx="1539.24" cy="761.62" rx="1.31" ry="1.1"/><path class="cls-3" d="M1466.86,482.28a1.13,1.13,0,0,1,1,1.3,1.33,1.33,0,0,1-1.54.87,1.13,1.13,0,0,1-1-1.3A1.32,1.32,0,0,1,1466.86,482.28Z"/><path class="cls-3" d="M1440.41,661.19a1.13,1.13,0,0,1,1,1.3,1.31,1.31,0,0,1-1.54.86,1.12,1.12,0,0,1-1-1.29A1.32,1.32,0,0,1,1440.41,661.19Z"/><ellipse class="cls-3" cx="1318.89" cy="753.74" rx="1.31" ry="1.1"/><ellipse class="cls-3" cx="1386.79" cy="389.12" rx="1.31" ry="1.1"/><path class="cls-3" d="M1471.89,415.47a1.32,1.32,0,1,1-1.3-1.1A1.22,1.22,0,0,1,1471.89,415.47Z"/><ellipse class="cls-3" cx="1294.78" cy="409.69" rx="1.31" ry="1.1"/><ellipse class="cls-3" cx="1515.97" cy="597.02" rx="1.31" ry="1.1"/><path class="cls-3" d="M1603.8,816.82a2.39,2.39,0,1,1-2.35-2A2.2,2.2,0,0,1,1603.8,816.82Z"/><ellipse class="cls-3" cx="1709.76" cy="742.77" rx="1.31" ry="1.1"/><ellipse class="cls-3" cx="1781.57" cy="706.03" rx="1.31" ry="1.1"/><ellipse class="cls-3" cx="1871.78" cy="582.18" rx="1.31" ry="1.1"/><path class="cls-3" d="M1737.42,717.71a1.13,1.13,0,0,1,1,1.3,1.32,1.32,0,0,1-1.54.87,1.13,1.13,0,0,1-1-1.3A1.32,1.32,0,0,1,1737.42,717.71Z"/><ellipse class="cls-3" cx="1378.04" cy="116.85" rx="1.31" ry="1.1"/><ellipse class="cls-3" cx="1315.3" cy="206.04" rx="1.31" ry="1.1"/><ellipse class="cls-3" cx="1470.23" cy="126.98" rx="1.31" ry="1.1"/><path class="cls-3" d="M1437.11,79.7a1.47,1.47,0,0,1-1.82-.28,1,1,0,0,1,.34-1.54,1.47,1.47,0,0,1,1.82.28A1,1,0,0,1,1437.11,79.7Z"/><path class="cls-3" d="M1371.39,26.55a1.13,1.13,0,0,1,1,1.3,1.32,1.32,0,0,1-1.54.87,1.11,1.11,0,0,1-1-1.3A1.31,1.31,0,0,1,1371.39,26.55Z"/><ellipse class="cls-3" cx="1249.88" cy="119.1" rx="1.31" ry="1.1"/><path class="cls-3" d="M1534.79,182.19a2.39,2.39,0,1,1-2.36-2A2.19,2.19,0,0,1,1534.79,182.19Z"/><ellipse class="cls-3" cx="1595.33" cy="46.92" rx="2.36" ry="1.99"/><ellipse class="cls-3" cx="1640.75" cy="108.14" rx="1.31" ry="1.1"/><path class="cls-3" d="M1668.41,83.08a1.11,1.11,0,0,1,1,1.3,1.31,1.31,0,0,1-1.53.86,1.13,1.13,0,0,1-1-1.3A1.31,1.31,0,0,1,1668.41,83.08Z"/><ellipse class="cls-3" cx="1657.35" cy="624.55" rx="1.31" ry="1.1"/><ellipse class="cls-3" cx="1741.15" cy="650.91" rx="1.31" ry="1.1"/><ellipse class="cls-3" cx="1893.2" cy="485.11" rx="1.31" ry="1.1"/><ellipse class="cls-3" cx="1565.34" cy="645.12" rx="1.31" ry="1.1"/><ellipse class="cls-3" cx="1169.52" cy="635.98" rx="1.31" ry="1.1"/><ellipse class="cls-3" cx="1054.81" cy="765.8" rx="1.31" ry="1.1"/><ellipse class="cls-3" cx="1266.73" cy="629.09" rx="1.31" ry="1.1"/><ellipse class="cls-3" cx="1174.65" cy="778.57" rx="1.31" ry="1.1"/><ellipse class="cls-3" cx="1111.85" cy="593.2" rx="2.36" ry="1.99"/><path class="cls-3" d="M1091.71,505a2.39,2.39,0,1,1-2.36-2A2.2,2.2,0,0,1,1091.71,505Z"/><path class="cls-3" d="M309.82,584.85c0,2.2-2.11,4-4.72,4s-4.71-1.78-4.71-4,2.11-4,4.71-4S309.82,582.65,309.82,584.85Z"/><path class="cls-3" d="M107.32,555.54a2.39,2.39,0,1,1-2.36-2A2.2,2.2,0,0,1,107.32,555.54Z"/><path class="cls-3" d="M414.5,614a2.39,2.39,0,1,1-2.35-2A2.2,2.2,0,0,1,414.5,614Z"/><path class="cls-3" d="M95.32,717.36a2.39,2.39,0,1,1-2.36-2A2.2,2.2,0,0,1,95.32,717.36Z"/><path class="cls-3" d="M35.19,814.87a2.19,2.19,0,0,1-2.36,2,2,2,0,1,1,0-4A2.2,2.2,0,0,1,35.19,814.87Z"/><ellipse class="cls-3" cx="141.15" cy="740.82" rx="1.31" ry="1.1"/><ellipse class="cls-3" cx="212.96" cy="704.08" rx="1.31" ry="1.1"/><ellipse class="cls-3" cx="348.99" cy="618.36" rx="1.31" ry="1.1"/><ellipse class="cls-3" cx="325.36" cy="553.28" rx="1.31" ry="1.1"/><ellipse class="cls-3" cx="205.48" cy="775.75" rx="1.31" ry="1.1"/><ellipse class="cls-3" cx="162.36" cy="885.11" rx="1.31" ry="1.1"/><ellipse class="cls-3" cx="317.16" cy="824.82" rx="1.31" ry="1.1"/><path class="cls-3" d="M168.81,715.76a1.13,1.13,0,0,1,1,1.3,1.33,1.33,0,0,1-1.54.87,1.13,1.13,0,0,1-1-1.3A1.32,1.32,0,0,1,168.81,715.76Z"/><ellipse class="cls-3" cx="134.15" cy="877.68" rx="1.31" ry="1.1"/><ellipse class="cls-3" cx="88.73" cy="622.6" rx="1.31" ry="1.1"/><ellipse class="cls-3" cx="172.54" cy="648.95" rx="1.31" ry="1.1"/><ellipse class="cls-3" cx="365.27" cy="532.52" rx="1.31" ry="1.1"/><path class="cls-3" d="M1736.75,788.63a2.39,2.39,0,1,1-2.36-2A2.19,2.19,0,0,1,1736.75,788.63Z"/><path class="cls-3" d="M1567.15,777.86a2.39,2.39,0,1,1-2.35-2A2.19,2.19,0,0,1,1567.15,777.86Z"/><path class="cls-3" d="M1597.23,845.9a2.39,2.39,0,1,1-2.36-2A2.2,2.2,0,0,1,1597.23,845.9Z"/><ellipse class="cls-3" cx="1612.98" cy="801.32" rx="1.31" ry="1.1"/><ellipse class="cls-3" cx="204.15" cy="836.56" rx="2.36" ry="1.99"/><ellipse class="cls-3" cx="282.47" cy="947.48" rx="1.31" ry="1.1"/><ellipse class="cls-3" cx="58.34" cy="970.26" rx="1.31" ry="1.1"/><path class="cls-3" d="M477,892.16a1.32,1.32,0,1,1-1.3-1.1A1.22,1.22,0,0,1,477,892.16Z"/><path class="cls-3" d="M313.67,916.36a1.13,1.13,0,0,1,1,1.3,1.31,1.31,0,0,1-1.53.87,1.13,1.13,0,0,1-1-1.3A1.32,1.32,0,0,1,313.67,916.36Z"/><ellipse class="cls-3" cx="154.31" cy="949.74" rx="1.31" ry="1.1"/><ellipse class="cls-3" cx="327.88" cy="871.12" rx="1.31" ry="1.1"/><path class="cls-3" d="M540.25,947.37a2.39,2.39,0,1,1-2.36-2A2.19,2.19,0,0,1,540.25,947.37Z"/><ellipse class="cls-3" cx="438.6" cy="900.29" rx="1.31" ry="1.1"/><ellipse class="cls-3" cx="501.24" cy="908.41" rx="2.36" ry="1.99"/><path class="cls-3" d="M710.74,916.81a2.39,2.39,0,1,1-2.36-2A2.2,2.2,0,0,1,710.74,916.81Z"/><ellipse class="cls-3" cx="549.43" cy="931.87" rx="1.31" ry="1.1"/><ellipse class="cls-3" cx="1684.79" cy="764.58" rx="1.31" ry="1.1"/><ellipse class="cls-3" cx="1655.1" cy="789.2" rx="1.31" ry="1.1"/><ellipse class="cls-3" cx="1677.31" cy="836.25" rx="1.31" ry="1.1"/><ellipse class="cls-3" cx="1875.81" cy="763.92" rx="1.31" ry="1.1"/><ellipse class="cls-3" cx="1763.75" cy="835.98" rx="1.31" ry="1.1"/><ellipse class="cls-3" cx="1638.8" cy="808.25" rx="1.31" ry="1.1"/><ellipse class="cls-3" cx="1272.99" cy="728.54" rx="1.31" ry="1.1"/><path class="cls-3" d="M1640.64,776.26a1.13,1.13,0,0,1,1,1.3,1.32,1.32,0,0,1-1.54.87,1.13,1.13,0,0,1-1-1.3A1.31,1.31,0,0,1,1640.64,776.26Z"/><ellipse class="cls-3" cx="1288.44" cy="697.34" rx="1.31" ry="1.1"/><path class="cls-3" d="M1908.63,646.31c0,2.21-2.11,4-4.71,4s-4.72-1.78-4.72-4,2.11-4,4.72-4S1908.63,644.11,1908.63,646.31Z"/><ellipse class="cls-3" cx="1870.47" cy="887.19" rx="2.36" ry="1.99"/><path class="cls-3" d="M1327.88,707.44c0,2.2-2.11,4-4.72,4s-4.72-1.78-4.72-4,2.12-4,4.72-4S1327.88,705.23,1327.88,707.44Z"/><ellipse class="cls-3" cx="1816.54" cy="849.14" rx="2.36" ry="1.99"/><ellipse class="cls-3" cx="1367.05" cy="740.95" rx="1.31" ry="1.1"/><ellipse class="cls-3" cx="1343.42" cy="675.87" rx="1.31" ry="1.1"/><ellipse class="cls-3" cx="1700.88" cy="895.95" rx="1.31" ry="1.1"/><path class="cls-3" d="M398.63,803.4c0,2.2-2.11,4-4.71,4s-4.72-1.79-4.72-4,2.11-4,4.72-4S398.63,801.2,398.63,803.4Z"/><path class="cls-3" d="M448,732.18a2.39,2.39,0,1,1-2.35-2A2.2,2.2,0,0,1,448,732.18Z"/><path class="cls-3" d="M393.14,896.13a2.39,2.39,0,1,1-2.36-2A2.21,2.21,0,0,1,393.14,896.13Z"/><path class="cls-3" d="M1012.76,790.18a2.39,2.39,0,1,1-2.36-2A2.2,2.2,0,0,1,1012.76,790.18Z"/><ellipse class="cls-3" cx="492.13" cy="812.69" rx="2.36" ry="1.99"/><ellipse class="cls-3" cx="600.44" cy="738.64" rx="1.31" ry="1.1"/><ellipse class="cls-3" cx="664.77" cy="773.57" rx="1.31" ry="1.1"/><ellipse class="cls-3" cx="621.65" cy="882.94" rx="1.31" ry="1.1"/><ellipse class="cls-3" cx="756.1" cy="832.56" rx="1.31" ry="1.1"/><ellipse class="cls-3" cx="593.44" cy="875.51" rx="1.31" ry="1.1"/><path class="cls-3" d="M953,864.35c0,2.2-2.12,4-4.72,4s-4.72-1.79-4.72-4,2.11-4,4.72-4S953,862.15,953,864.35Z"/><path class="cls-3" d="M800.74,826.5c0,2.2-2.11,4-4.72,4s-4.72-1.79-4.72-4,2.11-4,4.72-4S800.74,824.3,800.74,826.5Z"/><path class="cls-3" d="M907.25,730a2.39,2.39,0,1,1-2.36-2A2.2,2.2,0,0,1,907.25,730Z"/><path class="cls-3" d="M1145,832.79a2.39,2.39,0,1,1-2.36-2A2.19,2.19,0,0,1,1145,832.79Z"/><ellipse class="cls-3" cx="1057.12" cy="1054.5" rx="1.31" ry="1.1"/><ellipse class="cls-3" cx="924.72" cy="822.93" rx="1.31" ry="1.1"/><ellipse class="cls-3" cx="1013.19" cy="777.29" rx="1.31" ry="1.1"/><ellipse class="cls-3" cx="850.07" cy="893.96" rx="2.36" ry="1.99"/><path class="cls-3" d="M818.11,929a2.39,2.39,0,1,1-2.36-2A2.19,2.19,0,0,1,818.11,929Z"/><ellipse class="cls-3" cx="700.63" cy="829.49" rx="2.36" ry="1.99"/><path class="cls-7" d="M1151.83,363.72c.71,1.26-74.21,33-75.69,33.56a3.24,3.24,0,0,1-4-1.17,2.36,2.36,0,0,1,1.4-3.36C1075,392.14,1151.11,362.47,1151.83,363.72Z"/><path class="cls-8" d="M1485.82,519c.71,1.26-47.58,26.7-49.07,27.3a3.23,3.23,0,0,1-4-1.18,2.36,2.36,0,0,1,1.39-3.36C1435.65,541.13,1485.1,517.72,1485.82,519Z"/><path class="cls-9" d="M1606,120.55c.71,1.25-153.09,63.94-154.57,64.54a3.24,3.24,0,0,1-4-1.18,2.37,2.37,0,0,1,1.39-3.36C1450.35,180,1605.31,119.3,1606,120.55Z"/></g></g></g></svg>