<svg xmlns="http://www.w3.org/2000/svg" xmlns:xlink="http://www.w3.org/1999/xlink" viewBox="0 0 760.85 982.54"><defs><style>.cls-1{fill:url(#linear-gradient);}.cls-2{fill:url(#linear-gradient-2);}.cls-3{fill:#c7abc9;}.cls-4{fill:#d6bfd1;}.cls-5{fill:#ff956a;}.cls-6{fill:#ffad8c;}.cls-7{fill:#f4e0e6;}.cls-8{fill:#ea552d;}.cls-9{fill:url(#linear-gradient-3);}.cls-10{fill:url(#linear-gradient-4);}.cls-11{fill:url(#linear-gradient-5);}.cls-12{fill:url(#linear-gradient-6);}.cls-13{fill:url(#linear-gradient-7);}.cls-14{fill:url(#linear-gradient-8);}</style><linearGradient id="linear-gradient" x1="5609.9" y1="-1179.33" x2="5441.82" y2="-1184.81" gradientTransform="matrix(-0.78, 0.63, 0.63, 0.78, 5725.74, -1748.09)" gradientUnits="userSpaceOnUse"><stop offset="0" stop-color="#d6bfd1"/><stop offset="1" stop-color="#f4e0e6"/></linearGradient><linearGradient id="linear-gradient-2" x1="5815.68" y1="-1187.99" x2="5647.6" y2="-1193.47" xlink:href="#linear-gradient"/><linearGradient id="linear-gradient-3" x1="5515.41" y1="-1449.91" x2="5413.65" y2="-1453.23" xlink:href="#linear-gradient"/><linearGradient id="linear-gradient-4" x1="5848.99" y1="-1449.91" x2="5747.23" y2="-1453.23" xlink:href="#linear-gradient"/><linearGradient id="linear-gradient-5" x1="1528.59" y1="-2048.15" x2="1484.63" y2="-2049.58" gradientTransform="translate(-301.99 2802.92) rotate(-22.79)" xlink:href="#linear-gradient"/><linearGradient id="linear-gradient-6" x1="5639.02" y1="-2359.09" x2="5595.06" y2="-2360.53" gradientTransform="matrix(-0.85, 0.52, 0.52, 0.85, 6252.75, -563.51)" xlink:href="#linear-gradient"/><linearGradient id="linear-gradient-7" x1="3243.74" y1="-1046.39" x2="3217.13" y2="-1047.25" gradientTransform="matrix(0.87, 0.5, -0.5, 0.87, -3053.83, -438.67)" xlink:href="#linear-gradient"/><linearGradient id="linear-gradient-8" x1="5171.98" y1="-4960.59" x2="5145.37" y2="-4961.46" gradientTransform="matrix(0.2, 0.98, 0.98, -0.2, 4007.99, -5720.24)" xlink:href="#linear-gradient"/></defs><title>bunny-parent</title><g id="Layer_2" data-name="Layer 2"><g id="Classroom"><path class="cls-1" d="M722,697.07c-.34,3-99.06,60-93.91,139.12S708.2,780.3,729.81,738,722,697.07,722,697.07Z"/><path class="cls-2" d="M556,819c-.33,3-99.06,60-93.91,139.12s80.12-55.89,101.73-98.2S556,819,556,819Z"/><path class="cls-3" d="M318.7,190.58c17.33,113,67.8,199.1,112.73,192.21s67.32-104.11,50-217.15S416.82-6.34,371.89.54,301.38,77.54,318.7,190.58Z"/><path class="cls-4" d="M421.14,382.72c-42.1-6.3-86.42-87.66-102.44-192.14-13.9-90.72-.16-153.75,29-178.68,42.44.79,85.26,59.23,101.57,165.61C463.53,270.35,451,352.5,421.14,382.72Z"/><path class="cls-5" d="M370.32,258.07c4.11,55.11,21,98.78,37.68,97.53s34.6-35.41,30.49-90.52-25.87-88.25-42.57-87S366.22,203,370.32,258.07Z"/><path class="cls-6" d="M373,205.31a18,18,0,0,1,6.63-1.82c16.7-1.24,38.47,31.91,42.57,87,1.91,25.57-.93,46.62-6.18,62A16.19,16.19,0,0,1,408,355.6c-16.7,1.25-33.57-42.42-37.68-97.53C368.63,235.34,369.85,218,373,205.31Z"/><path class="cls-3" d="M179.61,634.76c42.07-106.34,41.91-206.1-.36-222.83S68.61,467.86,26.54,574.2-4.45,755.29,37.82,772,137.54,741.11,179.61,634.76Z"/><path class="cls-4" d="M188.11,417.19c33.17,26.68,30.39,119.29-8.5,217.57C145.85,720.11,102.18,767.6,64.4,774.39c-36.24-22.09-43.73-94.16-4.14-194.23C94.81,492.83,147.1,428.23,188.11,417.19Z"/><path class="cls-5" d="M169.09,550.45c24.26-49.66,31.73-95.87,16.68-103.22S138,460.35,113.78,510s-22.19,89.26-7.14,96.61S144.84,600.1,169.09,550.45Z"/><path class="cls-6" d="M140.13,594.63a18,18,0,0,1-6.64-1.77c-15.05-7.36-17.12-47,7.14-96.61,11.26-23,24.32-39.78,36.6-50.39a16.24,16.24,0,0,1,8.54,1.37c15,7.35,7.58,53.56-16.68,103.22C159.09,570.93,149.27,585.31,140.13,594.63Z"/><path class="cls-4" d="M223.14,819.32c127.94,159.62,264.06,113.14,394.27,8.77S822.62,601,694.68,441.36,357.47,237,227.25,341.33,95.2,659.71,223.14,819.32Z"/><path class="cls-7" d="M213.33,353.39c130.82-89.9,329.42-42.7,452.62,111s58.21,273.2-63,375C477.12,935.61,346.34,973,223.14,819.32S97.1,461.5,213.33,353.39Z"/><rect x="389.92" y="378.53" width="30.32" height="54.15" rx="15.16" transform="translate(974.83 468.74) rotate(141.29)"/><rect x="197.24" y="532.96" width="30.32" height="54.15" rx="15.16" transform="translate(728.41 864.18) rotate(141.29)"/><ellipse class="cls-8" cx="230.06" cy="630.56" rx="43.32" ry="28.16" transform="translate(-343.82 282.43) rotate(-38.71)"/><ellipse class="cls-8" cx="476.82" cy="432.77" rx="43.32" ry="28.16" transform="translate(-165.9 393.31) rotate(-38.71)"/><path d="M405,590.37a60,60,0,0,0,22.61-48,20.7,20.7,0,0,0-41.39.58,19,19,0,0,1-24.45,18.47A20.7,20.7,0,1,0,349.9,601.1,60.42,60.42,0,0,0,405,590.37Z"/><path class="cls-8" d="M423.89,564.12a60.33,60.33,0,0,1-53.65,39.41,46.42,46.42,0,0,1,53.65-39.41Z"/><path class="cls-9" d="M587.27,491.73c-5.48,4.39-90.89,33.87-78.88,60.08s32.85,37.52,53.1,14.35c8.32-9.52,40-45.49,57.49-46.08"/><path class="cls-10" d="M327,700.36c-5.48,4.39-90.89,33.87-78.88,60.08S281,798,301.21,774.78c8.32-9.51,40-45.48,57.49-46.08"/><path class="cls-11" d="M267.22,330.26c.74.3,26.14-15.28,43.69-4.22s-22.84,11.44-35.26,11.13S267.22,330.26,267.22,330.26Z"/><path class="cls-12" d="M246.9,346.43c-.19.78-27.65,12.34-28.89,33.05s22.61-11.9,29.59-22.18S246.9,346.43,246.9,346.43Z"/><path class="cls-3" d="M251.18,188.85c-29.87-1.53-54.58,6.86-55.18,18.73s23.11,22.73,53,24.26,47.46-7.47,48.07-19.34S281.05,190.37,251.18,188.85Z"/><path class="cls-4" d="M196.56,205c3.83-10.46,27-17.52,54.62-16.1,24,1.22,39.39,8.07,44.23,16.86C293,216.54,275.74,224.42,247.63,223,223.1,221.73,202.72,214.18,196.56,205Z"/><path class="cls-5" d="M231.17,198.51c-14.34-1.86-26.41.16-27,4.5s7.24,10.73,21.57,12.59,24-2,24.54-6.32S245.5,200.36,231.17,198.51Z"/><path class="cls-6" d="M244.54,202a4.7,4.7,0,0,1,.11,1.79c-.56,4.34-10.2,8.17-24.53,6.31a41.37,41.37,0,0,1-15.55-4.85,4.12,4.12,0,0,1-.37-2.23c.56-4.34,12.63-6.36,27-4.5A44.24,44.24,0,0,1,244.54,202Z"/><path class="cls-3" d="M159.41,287.23c10.2-28.11,9.4-54.19-1.77-58.25s-28.51,15.45-38.7,43.57-6.74,47.57,4.43,51.62S149.21,315.35,159.41,287.23Z"/><path class="cls-4" d="M160,230.29c8.87,6.73,8.84,31-.58,56.94-8.19,22.57-19.25,35.31-29.07,37.37-9.64-5.5-12.14-24.29-2.54-50.75C136.17,250.76,149.36,233.49,160,230.29Z"/><path class="cls-5" d="M156,265.27c6-13.16,7.58-25.3,3.59-27.11s-12.38,3.79-18.35,17-5.13,23.5-1.14,25.31S150.05,278.43,156,265.27Z"/><path class="cls-6" d="M148.78,277a4.78,4.78,0,0,1-1.75-.42c-4-1.81-4.82-12.14,1.14-25.31a41.29,41.29,0,0,1,9.2-13.44,4.2,4.2,0,0,1,2.24.29c4,1.81,2.38,14-3.59,27.11A44.52,44.52,0,0,1,148.78,277Z"/><path class="cls-4" d="M160.51,335.7c28,45.58,64.85,37.93,102,15.08s60.63-52.27,32.61-97.85-80.87-64-118-41.13S132.49,290.13,160.51,335.7Z"/><path class="cls-7" d="M173.1,214.48C210,195.39,260,214.09,287,258s6.23,72.78-28.54,95.27c-35.77,20.87-70.92,26.34-97.9-17.55S139.42,238.76,173.1,214.48Z"/><rect x="218.67" y="221.95" width="8.49" height="15.16" rx="4.24" transform="translate(533.02 308.33) rotate(148.42)"/><rect x="159.79" y="258.15" width="8.49" height="15.16" rx="4.24" transform="translate(442.94 406.2) rotate(148.42)"/><ellipse class="cls-8" cx="166.49" cy="285.93" rx="12.13" ry="7.88" transform="translate(-125.09 129.54) rotate(-31.58)"/><ellipse class="cls-8" cx="241.9" cy="239.57" rx="12.13" ry="7.88" transform="translate(-89.64 162.16) rotate(-31.58)"/><path d="M216.47,280.85a16.8,16.8,0,0,0,7.94-12.55A5.79,5.79,0,1,0,212.9,267a5.33,5.33,0,0,1-7.44,4.28,5.79,5.79,0,1,0-4.66,10.6A16.93,16.93,0,0,0,216.47,280.85Z"/><path class="cls-8" d="M222.63,274.21a16.84,16.84,0,0,1-16.27,9.08,13,13,0,0,1,16.27-9.08Z"/><path class="cls-13" d="M257.55,256.17c1.59.92,24.84,5.13,22.78,12.39s-7,11-13.15,5.82c-2.53-2.13-12.15-10.16-16.7-9.61"/><path class="cls-14" d="M166.82,309.73c.37,1.8-3,25.19,4.53,25.53S184,332.11,181,324.63c-1.22-3.07-5.79-14.74-3.83-18.88"/></g></g></svg>