<svg xmlns="http://www.w3.org/2000/svg" xmlns:xlink="http://www.w3.org/1999/xlink" viewBox="0 0 461.04 545.34"><defs><style>.cls-1{fill:url(#linear-gradient);}.cls-2{fill:url(#linear-gradient-2);}.cls-3{fill:#c7abc9;}.cls-4{fill:#d6bfd1;}.cls-5{fill:#ff956a;}.cls-6{fill:#ffad8c;}.cls-7{fill:#f4e0e6;}.cls-8{fill:#0e9347;}.cls-9{fill:#3bb54a;}.cls-10{fill:#89c763;}.cls-11{fill:#ea552d;}.cls-12{fill:url(#linear-gradient-3);}.cls-13{fill:url(#linear-gradient-4);}</style><linearGradient id="linear-gradient" x1="692.55" y1="-1382.23" x2="599.11" y2="-1385.27" gradientTransform="matrix(-0.77, 0.64, 0.64, 0.77, 1793.95, 1089.53)" gradientUnits="userSpaceOnUse"><stop offset="0" stop-color="#d6bfd1"/><stop offset="1" stop-color="#f4e0e6"/></linearGradient><linearGradient id="linear-gradient-2" x1="806.94" y1="-1387.04" x2="713.5" y2="-1390.09" xlink:href="#linear-gradient"/><linearGradient id="linear-gradient-3" x1="662.76" y1="-1523.85" x2="606.19" y2="-1525.69" xlink:href="#linear-gradient"/><linearGradient id="linear-gradient-4" x1="1402.99" y1="-1530.07" x2="1346.42" y2="-1531.92" gradientTransform="matrix(0.75, -0.62, 0.64, 0.77, 172.42, 2429.43)" xlink:href="#linear-gradient"/></defs><title>bunny-money</title><g id="Layer_2" data-name="Layer 2"><g id="resourse"><path class="cls-1" d="M440.21,384.62c-.16,1.69-54.56,34.15-51,78.1S433.24,431,444.9,407.3,440.21,384.62,440.21,384.62Z"/><path class="cls-2" d="M349,453.77c-.16,1.69-54.57,34.15-51.05,78.1s44.07-31.73,55.73-55.42S349,453.77,349,453.77Z"/><path class="cls-3" d="M211.86,106.43c10.57,62.69,39.34,110.11,64.25,105.91s36.56-58.43,26-121.12S264.77-3.84,239.85.36,201.3,43.74,211.86,106.43Z"/><path class="cls-4" d="M270.39,212.38c-23.45-3.15-48.76-48-58.53-105.95C203.38,56.12,210.5,21,226.52,6.87c23.59.09,47.88,32.22,57.82,91.22C293,149.57,286.72,195.34,270.39,212.38Z"/><path class="cls-5" d="M241.11,143.52c2.74,30.6,12.48,54.73,21.75,53.9s18.94-20,16.2-50.57S264,98,254.68,98.84,238.38,112.92,241.11,143.52Z"/><path class="cls-6" d="M242.19,114.17a9.93,9.93,0,0,1,3.67-1.06c9.27-.83,21.64,17.41,24.38,48,1.27,14.19-.13,25.92-2.92,34.5a9.12,9.12,0,0,1-4.46,1.8c-9.27.83-19-23.3-21.75-53.9C240,130.9,240.52,121.23,242.19,114.17Z"/><path class="cls-3" d="M45.44,257.12c44.24,45.65,94.82,68.4,113,50.81s-3-68.85-47.26-114.5S26.5,136.29,8.36,153.88,1.19,211.47,45.44,257.12Z"/><path class="cls-4" d="M153.72,311.21c-21.11,10.7-67.39-11.9-108.28-54.09C9.93,220.48-4.14,187.5,1.07,166.8c19.48-13.3,57.71-.6,99.34,42.35C136.75,246.64,157.51,287.91,153.72,311.21Z"/><path class="cls-5" d="M90.56,271.09c19.61,23.65,41.31,38,48.48,32.07s4.27-27.19-15.33-50.84S83.57,220.65,76.4,226.59,71,247.43,90.56,271.09Z"/><path class="cls-6" d="M74.81,246.3a9.89,9.89,0,0,1,2.41-3c7.17-5.95,27.71,2.07,47.31,25.72,9.1,11,14.59,21.43,17.15,30.08a9.07,9.07,0,0,1-2.64,4c-7.17,5.94-28.88-8.42-48.48-32.07C82.48,261.33,77.44,253.07,74.81,246.3Z"/><path class="cls-4" d="M164,456.7c72.44,87.66,147.71,60.7,219.22,1.6s112.19-127.93,39.75-215.59S233.79,131.89,162.28,191,91.52,369,164,456.7Z"/><path class="cls-7" d="M154.64,197.8c72-51.05,182.75-26.47,252.5,57.95s34.62,151.37-31.93,209c-69.12,54.5-141.51,76.38-211.26-8S90.93,258.86,154.64,197.8Z"/><path class="cls-8" d="M342.85,367.56l-91,58.3a5.41,5.41,0,0,1-7.46-1.64L212.3,374.17a5.43,5.43,0,0,1,1.64-7.47l91-58.3a5.43,5.43,0,0,1,7.47,1.64l32.06,50.06A5.41,5.41,0,0,1,342.85,367.56Z"/><path class="cls-9" d="M330.83,368.84,258,415.48a10.83,10.83,0,0,0-14.93-3.27l-20.4-31.86A10.85,10.85,0,0,0,226,365.42l72.81-46.64a10.83,10.83,0,0,0,14.93,3.27l20.4,31.86A10.85,10.85,0,0,0,330.83,368.84Z"/><ellipse class="cls-8" cx="278.39" cy="367.13" rx="21.62" ry="24.32" transform="translate(-154.05 208.14) rotate(-32.64)"/><circle class="cls-8" cx="251.09" cy="384.62" r="5.4"/><circle class="cls-8" cx="305.7" cy="349.64" r="5.4"/><path class="cls-10" d="M279.21,363.4l-4.55,2.91a2.7,2.7,0,1,1-2.91-4.55l6.82-4.37a2.7,2.7,0,1,0-2.91-4.55l-2.28,1.46a2.7,2.7,0,0,0-4.55,2.91,8.11,8.11,0,1,0,8.75,13.65l4.55-2.91A2.7,2.7,0,1,1,285,372.5l-6.82,4.37a2.7,2.7,0,1,0,2.91,4.55l2.28-1.45a2.7,2.7,0,0,0,4.55-2.92,8.11,8.11,0,1,0-8.75-13.65Z"/><rect x="253.23" y="210.18" width="16.86" height="30.1" rx="8.43" transform="translate(606.83 232.19) rotate(140.43)"/><rect x="147.41" y="297.62" width="16.86" height="30.1" rx="8.43" transform="translate(475.14 454.43) rotate(140.43)"/><ellipse class="cls-11" cx="166.24" cy="351.72" rx="24.08" ry="15.65" transform="translate(-185.95 186.48) rotate(-39.57)"/><ellipse class="cls-11" cx="301.76" cy="239.74" rx="24.08" ry="15.65" transform="translate(-83.57 247.14) rotate(-39.57)"/><path d="M263.13,327.93a33.36,33.36,0,0,0,12.17-26.86,11.5,11.5,0,0,0-23,.67,10.56,10.56,0,0,1-13.44,10.47,11.5,11.5,0,0,0-6.26,22.14A33.6,33.6,0,0,0,263.13,327.93Z"/><path class="cls-11" d="M273.42,313.19a33.56,33.56,0,0,1-29.49,22.35,25.78,25.78,0,0,1,29.49-22.35Z"/><path class="cls-12" d="M351.71,292.86c-3,2.48-50.24,19.58-43.35,34.05s18.57,20.58,29.64,7.53c4.54-5.36,21.84-25.61,31.57-26.09"/><path class="cls-13" d="M195.49,413.86c2.92-2.4,27.44-44.6,40.26-35S252.49,400.93,238,409c-5.95,3.31-28.45,15.95-30.56,25.26"/></g></g></svg>