<svg xmlns="http://www.w3.org/2000/svg" xmlns:xlink="http://www.w3.org/1999/xlink" viewBox="0 0 399.54 195.85"><defs><style>.cls-1{fill:url(#linear-gradient);}.cls-2{fill:url(#linear-gradient-2);}.cls-3{fill:#c7abc9;}.cls-4{fill:#d6bfd1;}.cls-5{fill:#ff956a;}.cls-6{fill:#ffad8c;}.cls-7{fill:#f4e0e6;}.cls-8{fill:#ea552d;}.cls-9{fill:#eefffd;}.cls-10{fill:url(#linear-gradient-3);}.cls-11{fill:#aa0f1e;}.cls-12{fill:#dae7ef;}.cls-13{fill:#c1d5e4;}.cls-14{fill:#dd636e;}.cls-15{fill:#e28086;}.cls-16{fill:#da4a54;}.cls-17{fill:#bcd0df;}.cls-18{fill:#98b9d3;}.cls-19{fill:#eab14d;}.cls-20{fill:#e7a52e;}.cls-21{fill:#aa8080;}.cls-22{fill:#9d6b6b;}.cls-23{fill:url(#linear-gradient-4);}</style><linearGradient id="linear-gradient" x1="876.79" y1="331.6" x2="832.18" y2="330.14" gradientTransform="translate(-704.62 69.61) rotate(-13.91)" gradientUnits="userSpaceOnUse"><stop offset="0" stop-color="#d6bfd1"/><stop offset="1" stop-color="#f4e0e6"/></linearGradient><linearGradient id="linear-gradient-2" x1="929.46" y1="337.17" x2="884.85" y2="335.72" xlink:href="#linear-gradient"/><linearGradient id="linear-gradient-3" x1="396.91" y1="158.83" x2="369.9" y2="157.95" gradientTransform="translate(-105.34 -51.46) rotate(-1.83)" xlink:href="#linear-gradient"/><linearGradient id="linear-gradient-4" x1="-4733.24" y1="2033.56" x2="-4760.24" y2="2032.68" gradientTransform="matrix(0.13, 0.57, -0.98, 0.22, 2748.6, 2352.09)" xlink:href="#linear-gradient"/></defs><title>button-bunny</title><g id="Layer_2" data-name="Layer 2"><g id="Detail"><path class="cls-1" d="M178.06,181.07c.7.42,28.61-11.23,44.47,2.61s-24.69,7.89-37.1,5.64S178.06,181.07,178.06,181.07Z"/><path class="cls-2" d="M230.52,173.83c.7.42,28.61-11.23,44.48,2.61s-24.7,7.89-37.11,5.63S230.52,173.83,230.52,173.83Z"/><path class="cls-3" d="M112.72,73.15c14.87-26.46,35.45-43.12,46-37.2s7,32.15-7.89,58.61-32.13,36.68-42.64,30.77S97.84,99.61,112.72,73.15Z"/><path class="cls-4" d="M156.13,35c-11-2.37-29.67,13.69-43.41,38.15-11.94,21.23-14.42,38.18-9.5,47.1,10.61,3.77,26.72-6.74,40.71-31.64C156.15,66.88,160.71,45.3,156.13,35Z"/><path class="cls-5" d="M131.85,61.21c6.17-13.3,14.45-22.57,18.48-20.7s5.28,12-.89,25.33-14.68,19.51-18.71,17.64S125.68,74.52,131.85,61.21Z"/><path class="cls-6" d="M127.59,74.57a4.71,4.71,0,0,0,1.48,1.07c4,1.87,12.54-4.33,18.71-17.63A42.11,42.11,0,0,0,152,42a4.32,4.32,0,0,0-1.71-1.53c-4-1.87-12.31,7.4-18.48,20.7A45.06,45.06,0,0,0,127.59,74.57Z"/><path class="cls-3" d="M248.43,70.32c-26.46-14.87-43.11-35.45-37.2-46s32.15-7,58.61,7.89,36.68,32.12,30.77,42.64S274.89,85.2,248.43,70.32Z"/><path class="cls-4" d="M210.28,26.91C207.91,38,224,56.58,248.43,70.32c21.24,11.94,38.18,14.42,47.1,9.5,3.77-10.62-6.74-26.72-31.64-40.71C242.16,26.89,220.58,22.33,210.28,26.91Z"/><path class="cls-5" d="M236.49,51.19c-13.3-6.17-22.57-14.44-20.7-18.48s12-5.28,25.34.89,19.5,14.68,17.63,18.71S249.8,57.36,236.49,51.19Z"/><path class="cls-6" d="M249.85,55.45A4.74,4.74,0,0,0,250.93,54c1.87-4-4.33-12.54-17.64-18.71a42.11,42.11,0,0,0-16-4.26,4.32,4.32,0,0,0-1.53,1.71c-1.87,4,7.4,12.31,20.7,18.48A45.06,45.06,0,0,0,249.85,55.45Z"/><path class="cls-4" d="M284.22,103.67c13,52.7-18.68,73.92-61.68,84.57s-81,6.69-94-46S139.75,38.17,182.74,27.52,271.17,51,284.22,103.67Z"/><path class="cls-7" d="M185.1,27.13c-40,13.11-62.08,62.6-49.51,113.35s48.24,56.3,89.26,47.13c40.55-11,69.51-32.59,57-83.34S226.63,20,185.1,27.13Z"/><rect x="166.21" y="60.48" width="8.05" height="14.37" rx="4.02" transform="translate(-11.28 42.91) rotate(-13.91)"/><rect x="229.83" y="44.73" width="8.05" height="14.37" rx="4.02" transform="translate(-5.62 57.74) rotate(-13.91)"/><ellipse class="cls-8" cx="245.88" cy="67" rx="11.5" ry="7.47" transform="translate(-8.9 61.07) rotate(-13.91)"/><ellipse class="cls-8" cx="164.41" cy="87.18" rx="11.5" ry="7.47" transform="translate(-16.14 42.08) rotate(-13.91)"/><path d="M209.22,97.42a15.9,15.9,0,0,1-13.76-3,5.49,5.49,0,0,1,6.79-8.64,5,5,0,0,0,7.83-2.18,5.5,5.5,0,0,1,10.28,3.89A16,16,0,0,1,209.22,97.42Z"/><path class="cls-8" d="M200.64,97.18a16,16,0,0,0,17-5,12.33,12.33,0,0,0-17,5Z"/><path class="cls-9" d="M204.37,97.86l.93,3.75a2.49,2.49,0,1,0,4.84-1.2l-.75-3-.17,0A16,16,0,0,1,204.37,97.86Z"/><path class="cls-9" d="M195.46,94.46c-.13-.11-.26-.22-.37-.33a.15.15,0,0,0,0,.07l2.6,10.51A3.75,3.75,0,0,0,205,102.9l-1.26-5.09A15.91,15.91,0,0,1,195.46,94.46Z"/><path class="cls-10" d="M268.42,91.2c1.86-.06,24.17-8.85,26.27-1.49s-.15,13.24-8.23,12.06c-3.32-.49-15.91-2.28-19.55.62"/><rect class="cls-11" y="111.22" width="399.54" height="84.63" rx="22.38"/><path class="cls-12" d="M354.73,118.41H323.82a2.2,2.2,0,0,1-2.18-1.91L321,112l14.83-6.77L357.53,112l-.62,4.46a2.2,2.2,0,0,1-2.18,1.91Z"/><path class="cls-12" d="M344.13,12.75h-9.7A21.14,21.14,0,0,0,313.29,33.9v3.54h52V33.9a21.15,21.15,0,0,0-21.14-21.15Z"/><path class="cls-13" d="M348.5,13.21a21.06,21.06,0,0,1,7.24,15.92,3.54,3.54,0,0,1-3.55,3.54H313.32q0,.61,0,1.23v6.72l52-3.18V33.9A21.14,21.14,0,0,0,348.5,13.21Z"/><path class="cls-12" d="M345.32,72.78c6.05,0,17-4.54,18.66-4.13l.79-21.88-28.59-4-22.39,4,.78,21.63c1.7.41,3.19,4.38,6.56,4.38Z"/><path class="cls-13" d="M355.06,46.77l-.76,21.17c.85-.1-.09,2.7,1.18,2.7,3.36,0,6.79-2.4,8.5-2l.79-21.88-5-1.86Z"/><path class="cls-14" d="M335.52,46.77V71.45c3.22.26,4.29,1.07,7.52,1.33V44.91Z"/><path class="cls-15" d="M342.07,0h-5.59a1,1,0,0,0-1,1V12.75L343,14.89V1a1,1,0,0,0-1-1Z"/><rect class="cls-14" x="335.52" y="12.75" width="7.52" height="24.69"/><path class="cls-16" d="M343,32.67h-7.52v4.77l7.52,1Z"/><path class="cls-17" d="M368.16,46.77H310.4A1.36,1.36,0,0,1,309,45.41V38.8a1.36,1.36,0,0,1,1.36-1.36h57.76a1.36,1.36,0,0,1,1.36,1.36v6.61a1.36,1.36,0,0,1-1.36,1.36Z"/><path class="cls-18" d="M318.9,42.26a1.78,1.78,0,0,0,1.78-1.78v-3h-3.57v3a1.79,1.79,0,0,0,1.79,1.78Z"/><path class="cls-18" d="M349.47,42.26a1.78,1.78,0,0,0,1.78-1.78v-3h-3.57v3a1.79,1.79,0,0,0,1.79,1.78Z"/><path class="cls-18" d="M339.28,42.26a1.78,1.78,0,0,0,1.78-1.78v-3h-3.57v3a1.79,1.79,0,0,0,1.79,1.78Z"/><path class="cls-18" d="M329.09,42.26a1.78,1.78,0,0,0,1.78-1.78v-3H327.3v3a1.79,1.79,0,0,0,1.79,1.78Z"/><path class="cls-18" d="M357.87,37.44v3a1.79,1.79,0,0,0,3.57,0v-3Z"/><path class="cls-19" d="M357.42,67.77c-6.05,0-6.05,1.51-12.1,1.51s-6-1.51-12.09-1.51-6.05,1.51-12.1,1.51a22.6,22.6,0,0,1-6.56-.88L316,107.11a5.12,5.12,0,0,0,5.12,4.93h36.4a5.12,5.12,0,0,0,5.11-4.93L364,68.65a22.66,22.66,0,0,0-6.56-.88Z"/><path class="cls-20" d="M357.42,67.77a26.28,26.28,0,0,0-3.12.17l-.57,15.91a24.31,24.31,0,0,1-24.28,23.42H316a5.12,5.12,0,0,0,5.1,4.77h36.41a5.12,5.12,0,0,0,5.11-4.93L364,68.65a22.66,22.66,0,0,0-6.56-.88Z"/><path class="cls-21" d="M330.15,99.59A4.56,4.56,0,1,1,325.59,95a4.56,4.56,0,0,1,4.56,4.56Z"/><path class="cls-21" d="M339.28,99.59A4.57,4.57,0,1,1,334.71,95a4.57,4.57,0,0,1,4.57,4.56Z"/><path class="cls-21" d="M348.4,99.59A4.56,4.56,0,1,1,343.84,95a4.56,4.56,0,0,1,4.56,4.56Z"/><path class="cls-22" d="M342,103.77a4.47,4.47,0,0,0,1.83.38,4.56,4.56,0,0,0,4.56-4.56,4.49,4.49,0,0,0-.16-1.22,24.21,24.21,0,0,1-6.23,5.4Z"/><path class="cls-21" d="M334.71,107.47a4.56,4.56,0,1,1-4.56-4.56,4.57,4.57,0,0,1,4.56,4.56Z"/><path class="cls-22" d="M334.71,107.47a4.77,4.77,0,0,0-.06-.76,24.15,24.15,0,0,1-5.2.56h-3.86v.2a4.56,4.56,0,1,0,9.12,0Z"/><path class="cls-21" d="M325.59,107.47a4.57,4.57,0,1,1-4.56-4.56,4.57,4.57,0,0,1,4.56,4.56Z"/><path class="cls-22" d="M325.59,107.47a1.34,1.34,0,0,0,0-.2h-9.11a1.34,1.34,0,0,0,0,.2,4.55,4.55,0,0,0,3.7,4.48,5.27,5.27,0,0,0,.89.09,4.58,4.58,0,0,0,4.54-4.57Z"/><path class="cls-22" d="M353,107.47a4.57,4.57,0,1,1-4.57-4.56,4.58,4.58,0,0,1,4.57,4.56Z"/><path class="cls-21" d="M343.84,107.47a4.57,4.57,0,1,1-4.56-4.56,4.57,4.57,0,0,1,4.56,4.56Z"/><path class="cls-22" d="M343.84,107.47a4.55,4.55,0,0,0-1.86-3.68,24.11,24.11,0,0,1-7.2,2.89,5.16,5.16,0,0,0-.07.79,4.57,4.57,0,1,0,9.13,0Z"/><path class="cls-21" d="M334.71,91.71a4.56,4.56,0,1,1-4.56-4.56,4.56,4.56,0,0,1,4.56,4.56Z"/><path class="cls-21" d="M325.59,91.71A4.57,4.57,0,1,1,321,87.15a4.56,4.56,0,0,1,4.56,4.56Z"/><path class="cls-21" d="M353,91.71a4.57,4.57,0,1,1-4.57-4.56A4.57,4.57,0,0,1,353,91.71Z"/><path class="cls-22" d="M353,91.71a4.68,4.68,0,0,0-.29-1.6A24.49,24.49,0,0,1,350,96a4.57,4.57,0,0,0,3-4.29Z"/><path class="cls-22" d="M357.53,99.59A4.57,4.57,0,1,1,353,95a4.56,4.56,0,0,1,4.56,4.56Z"/><path class="cls-22" d="M362.09,107.47a4.56,4.56,0,1,1-4.56-4.56,4.57,4.57,0,0,1,4.56,4.56Z"/><path class="cls-22" d="M362.09,91.71a4.56,4.56,0,1,1-4.56-4.56,4.56,4.56,0,0,1,4.56,4.56Z"/><path class="cls-21" d="M343.84,91.71a4.57,4.57,0,1,1-4.56-4.56,4.56,4.56,0,0,1,4.56,4.56Z"/><path class="cls-23" d="M164.27,102.7c.23,1,11,12.06,4,14.74s-13,2.57-12.59-2.29c.16-2,.71-9.57-2.48-11.07"/></g></g></svg>