<svg xmlns="http://www.w3.org/2000/svg" viewBox="0 0 933.02 752.26"><defs><style>.cls-1{opacity:0.07;}.cls-2{fill:#afaac4;}.cls-3{fill:#827c91;}.cls-4{fill:#e4f6ff;}.cls-5{fill:#d3effb;}.cls-6{fill:#dd636e;}.cls-7{fill:#b1e4f9;}.cls-8{fill:#a19eb7;}.cls-9{fill:#b7b4cc;}.cls-10{fill:#9795af;}.cls-11{fill:#dae7ef;}.cls-12{fill:#c1d5e4;}.cls-13{fill:#e28086;}.cls-14{fill:#da4a54;}.cls-15{fill:#bcd0df;}.cls-16{fill:#98b9d3;}.cls-17{fill:#eab14d;}.cls-18{fill:#e7a52e;}.cls-19{fill:#aa8080;}.cls-20{fill:#9d6b6b;}.cls-21{fill:#59c1ad;}</style></defs><title>laptop</title><g id="Layer_2" data-name="Layer 2"><g id="Assignment"><ellipse class="cls-1" cx="466.51" cy="693.83" rx="466.51" ry="58.43"/><path class="cls-2" d="M796.23,0H140.64A62,62,0,0,0,78.71,61.93V526.46a62.32,62.32,0,0,0,52.17,61.14L142,596.51H785.21L806,587.6a62.31,62.31,0,0,0,52.16-61.14V61.93A62,62,0,0,0,796.23,0Z"/><path class="cls-3" d="M137.78,526.46V61.93A62,62,0,0,1,199.72,0H140.64A62,62,0,0,0,78.71,61.93V526.46a62.32,62.32,0,0,0,52.17,61.14L142,596.51H201.1L190,587.6a62.33,62.33,0,0,1-52.17-61.14Z"/><path class="cls-4" d="M795,109.38H145.58l-11.24,11.74V521.37a11.12,11.12,0,0,0,11.11,11.11h646a11.11,11.11,0,0,0,11.11-11.11V121.12Z"/><path class="cls-5" d="M206.57,521.37V121.12l11.24-11.74H145.58l-11.24,11.74V521.37a11.12,11.12,0,0,0,11.11,11.11h72.24a11.11,11.11,0,0,1-11.12-11.11Z"/><path class="cls-6" d="M206.57,55.22H145.45a11.11,11.11,0,0,0-11.11,11.11v54.79h72.23l4.75-5.07V58.75Z"/><path class="cls-7" d="M791.41,55.22H206.57v65.9h596V66.33a11.1,11.1,0,0,0-11.11-11.11Z"/><path class="cls-4" d="M309.3,453.11V405.65a4,4,0,0,0-4-4H260.61a4,4,0,0,0-4,4v47.46Z"/><path class="cls-8" d="M899.62,587.6H37.25A10.39,10.39,0,0,0,26.91,598V634c0,26.65,21.59,48.45,48,48.45H862c26.38,0,48-21.8,48-48.45V598a10.39,10.39,0,0,0-10.34-10.44Z"/><path class="cls-3" d="M134.34,634V598a10.4,10.4,0,0,1,10.34-10.44H37.25A10.39,10.39,0,0,0,26.91,598V634c0,26.65,21.59,48.45,48,48.45H182.33c-26.39,0-48-21.8-48-48.45Z"/><path class="cls-9" d="M339.63,587.6v24.1A21.49,21.49,0,0,0,361,633.23h215a21.5,21.5,0,0,0,21.33-21.53V587.6Z"/><path class="cls-10" d="M447.07,611.7V587.6H339.63v24.1A21.49,21.49,0,0,0,361,633.23H468.39a21.49,21.49,0,0,1-21.32-21.53Z"/><rect class="cls-7" x="304.48" y="182.09" width="372.54" height="275.95"/><path class="cls-11" d="M539.05,427.13h-76a5.42,5.42,0,0,1-5.37-4.68l-1.51-11,36.45-16.62,53.28,16.62-1.51,11a5.42,5.42,0,0,1-5.37,4.68Z"/><path class="cls-11" d="M513,167.44H489.15a52,52,0,0,0-52,52v8.71H565v-8.71a52,52,0,0,0-52-52Z"/><path class="cls-12" d="M523.75,168.56a51.86,51.86,0,0,1,17.78,39.14,8.72,8.72,0,0,1-8.72,8.71H437.27q-.09,1.49-.09,3v16.53L565,228.12v-8.71a52,52,0,0,0-41.2-50.85Z"/><path class="cls-11" d="M515.93,315c14.87,0,41.67-11.18,45.85-10.16l1.94-53.77-70.26-9.85-55,9.85,1.92,53.15c4.2,1,7.86,10.78,16.14,10.78Z"/><path class="cls-12" d="M539.87,251.06l-1.88,52c2.09-.26-.22,6.63,2.9,6.63,8.26,0,16.7-5.91,20.89-4.89l1.94-53.77-12.29-4.58Z"/><path class="cls-6" d="M491.82,251.06V311.7c7.94.66,10.55,2.64,18.49,3.29V246.48Z"/><path class="cls-13" d="M507.94,136.1H494.19a2.37,2.37,0,0,0-2.37,2.37v29l18.49,5.26V138.47a2.37,2.37,0,0,0-2.37-2.37Z"/><rect class="cls-6" x="491.82" y="167.44" width="18.49" height="60.68"/><path class="cls-14" d="M510.31,216.41H491.82v11.71l18.49,2.55Z"/><path class="cls-15" d="M572.05,251.06h-142a3.35,3.35,0,0,1-3.34-3.35V231.47a3.35,3.35,0,0,1,3.34-3.35h142a3.35,3.35,0,0,1,3.35,3.35v16.24a3.35,3.35,0,0,1-3.35,3.35Z"/><path class="cls-16" d="M451,240a4.39,4.39,0,0,0,4.39-4.39v-7.46h-8.78v7.46A4.38,4.38,0,0,0,451,240Z"/><path class="cls-16" d="M526.11,240a4.38,4.38,0,0,0,4.39-4.39v-7.46h-8.78v7.46a4.38,4.38,0,0,0,4.39,4.39Z"/><path class="cls-16" d="M501.06,240a4.39,4.39,0,0,0,4.4-4.39v-7.46h-8.79v7.46a4.39,4.39,0,0,0,4.39,4.39Z"/><path class="cls-16" d="M476,240a4.38,4.38,0,0,0,4.39-4.39v-7.46h-8.78v7.46A4.38,4.38,0,0,0,476,240Z"/><path class="cls-16" d="M546.76,228.12v7.46a4.39,4.39,0,0,0,8.78,0v-7.46Z"/><path class="cls-17" d="M545.66,302.67c-14.86,0-14.86,3.71-29.73,3.71s-14.87-3.71-29.73-3.71-14.87,3.71-29.73,3.71a55.34,55.34,0,0,1-16.14-2.17l3.44,95.14a12.57,12.57,0,0,0,12.56,12.12H545.8a12.57,12.57,0,0,0,12.56-12.12l3.42-94.52a55.25,55.25,0,0,0-16.12-2.16Z"/><path class="cls-18" d="M545.66,302.67a61.71,61.71,0,0,0-7.67.42l-1.41,39.11a59.71,59.71,0,0,1-59.68,57.56H443.79a12.57,12.57,0,0,0,12.54,11.71H545.8a12.57,12.57,0,0,0,12.56-12.12l3.42-94.52a55.25,55.25,0,0,0-16.12-2.16Z"/><path class="cls-19" d="M478.64,380.88a11.22,11.22,0,1,1-11.22-11.21,11.22,11.22,0,0,1,11.22,11.21Z"/><path class="cls-19" d="M501.07,380.88a11.22,11.22,0,1,1-11.22-11.21,11.21,11.21,0,0,1,11.22,11.21Z"/><path class="cls-19" d="M523.5,380.88a11.22,11.22,0,1,1-11.22-11.21,11.21,11.21,0,0,1,11.22,11.21Z"/><path class="cls-20" d="M507.79,391.16a11.23,11.23,0,0,0,15.71-10.28,11.3,11.3,0,0,0-.4-3,60.21,60.21,0,0,1-15.31,13.27Z"/><path class="cls-19" d="M489.85,400.25A11.22,11.22,0,1,1,478.64,389a11.21,11.21,0,0,1,11.21,11.21Z"/><path class="cls-20" d="M489.85,400.25a11.51,11.51,0,0,0-.15-1.87,60,60,0,0,1-12.79,1.38h-9.48c0,.16,0,.32,0,.49a11.22,11.22,0,1,0,22.43,0Z"/><path class="cls-19" d="M467.42,400.25A11.22,11.22,0,1,1,456.21,389a11.21,11.21,0,0,1,11.21,11.21Z"/><path class="cls-20" d="M467.42,400.25c0-.17,0-.33,0-.49H445c0,.16,0,.32,0,.49a11.22,11.22,0,0,0,9.09,11,14.26,14.26,0,0,0,2.19.2,11.21,11.21,0,0,0,11.15-11.22Z"/><path class="cls-20" d="M534.71,400.25A11.22,11.22,0,1,1,523.5,389a11.21,11.21,0,0,1,11.21,11.21Z"/><path class="cls-19" d="M512.28,400.25A11.22,11.22,0,1,1,501.07,389a11.21,11.21,0,0,1,11.21,11.21Z"/><path class="cls-20" d="M512.28,400.25a11.19,11.19,0,0,0-4.58-9,59.29,59.29,0,0,1-17.68,7.1,11.21,11.21,0,1,0,22.26,1.94Z"/><path class="cls-19" d="M489.85,361.51a11.22,11.22,0,1,1-11.21-11.22,11.21,11.21,0,0,1,11.21,11.22Z"/><path class="cls-19" d="M467.42,361.51a11.22,11.22,0,1,1-11.21-11.22,11.21,11.21,0,0,1,11.21,11.22Z"/><path class="cls-19" d="M534.71,361.51a11.22,11.22,0,1,1-11.21-11.22,11.21,11.21,0,0,1,11.21,11.22Z"/><path class="cls-20" d="M534.71,361.51a11.15,11.15,0,0,0-.71-3.94,59.31,59.31,0,0,1-6.68,14.49,11.23,11.23,0,0,0,7.39-10.55Z"/><path class="cls-20" d="M545.93,380.88a11.22,11.22,0,1,1-11.22-11.21,11.21,11.21,0,0,1,11.22,11.21Z"/><path class="cls-20" d="M557.15,400.25A11.22,11.22,0,1,1,545.93,389a11.22,11.22,0,0,1,11.22,11.21Z"/><path class="cls-20" d="M557.15,361.51a11.22,11.22,0,1,1-11.22-11.22,11.22,11.22,0,0,1,11.22,11.22Z"/><path class="cls-19" d="M512.28,361.51a11.22,11.22,0,1,1-11.21-11.22,11.21,11.21,0,0,1,11.21,11.22Z"/><rect class="cls-4" x="320.57" y="437.35" width="342.64" height="9.2"/><rect class="cls-21" x="320.57" y="437.35" width="112.68" height="9.2"/></g></g></svg>