<svg xmlns="http://www.w3.org/2000/svg" xmlns:xlink="http://www.w3.org/1999/xlink" viewBox="0 0 644.68 420.21"><defs><style>.cls-1{fill:#39b54a;}.cls-2{fill:#009444;}.cls-3{fill:#63b259;}.cls-4{fill:#53803a;}.cls-5{fill:#d6a330;}.cls-6{fill:#f6d98d;}.cls-7{fill:url(#linear-gradient);}</style><linearGradient id="linear-gradient" x1="838.56" y1="-436.19" x2="838.56" y2="53.09" gradientTransform="translate(-462.69 630.4) rotate(-12.65)" gradientUnits="userSpaceOnUse"><stop offset="0.01" stop-color="#f7c345"/><stop offset="0.14" stop-color="#f7be36"/><stop offset="0.35" stop-color="#f6ba26"/><stop offset="0.51" stop-color="#f6b821"/><stop offset="0.66" stop-color="#eba627"/><stop offset="0.85" stop-color="#e2962b"/><stop offset="1" stop-color="#df912d"/></linearGradient></defs><title>Asset 25</title><g id="Layer_2" data-name="Layer 2"><g id="Layer_18" data-name="Layer 18"><path class="cls-1" d="M515.67,223.18,562.59.26C448.72,94.13,509.42,211.83,515.67,223.18Z"/><path class="cls-2" d="M562.59.26,515.67,223.18l.51.9C644.24,130.75,562.9,0,562.9,0Z"/><path class="cls-1" d="M509.05,231.12l135.36-72.31C546.66,140.69,512.21,223,509.05,231.12Z"/><path class="cls-2" d="M644.41,158.81,509.05,231.12c-.16.42-.24.65-.24.65,103.62,25.68,135.87-72.91,135.87-72.91Z"/><path class="cls-3" d="M111.17,345.35.37,215.29C109,236.32,111.22,335.63,111.17,345.35Z"/><path class="cls-4" d="M.37,215.29l110.8,130.06c0,.5,0,.77,0,.77C-6.66,330.52.07,215.23.07,215.23Z"/><path class="cls-3" d="M118.38,348.21l-115.1.86C61.19,302.1,113.39,344,118.38,348.21Z"/><path class="cls-4" d="M3.28,349.07l115.1-.86.4.34c-59.07,54.05-115.66.65-115.66.65Z"/><path class="cls-5" d="M243.83,116.73,211.16,79.22a25,25,0,0,0-24.28-8L68.81,97.77a25,25,0,0,0-18.88,29.81l61.31,273.14a25,25,0,0,0,29.81,18.88l396.74-89.06a24.94,24.94,0,0,0,18.88-29.81l-46-204.92a25,25,0,0,0-29.81-18.88L268.11,124.69A25,25,0,0,1,243.83,116.73Z"/><path class="cls-6" d="M116,90.93H495.15a0,0,0,0,1,0,0V341.61a15.83,15.83,0,0,1-15.83,15.83H116a0,0,0,0,1,0,0V90.93a0,0,0,0,1,0,0Z" transform="translate(652.79 376.01) rotate(167.35)"/><path class="cls-7" d="M315.43,100.66l13.5-47.87a25,25,0,0,1,18.55-17.58L465.55,8.71a25,25,0,0,1,29.81,18.88l61.31,273.14a24.94,24.94,0,0,1-18.88,29.81L141.05,419.6a25,25,0,0,1-29.81-18.88l-46-204.92A24.94,24.94,0,0,1,84.13,166l212.75-47.76A25,25,0,0,0,315.43,100.66Z"/></g></g></svg>