<svg xmlns="http://www.w3.org/2000/svg" viewBox="0 0 634.78 493.19"><defs><style>.cls-1{fill:#39b54a;}.cls-2{fill:#009444;}.cls-3{fill:#63b259;}.cls-4{fill:#53803a;}.cls-5{fill:#fff;}.cls-6{opacity:0.2;}.cls-7{fill:#58595b;}.cls-8{fill:#bcbec0;}.cls-9{fill:none;stroke:#d3d3d3;stroke-miterlimit:10;stroke-width:5.05px;}.cls-10{fill:#d3d3d3;}</style></defs><title>Asset 24</title><g id="Layer_2" data-name="Layer 2"><g id="Layer_18" data-name="Layer 18"><path class="cls-1" d="M514,390l72.22-186.19C474.43,268.86,510.24,379.31,514,390Z"/><path class="cls-2" d="M586.26,203.82,514,390c.19.56.31.86.31.86,124-62.57,72.22-187.24,72.22-187.24Z"/><path class="cls-1" d="M507.18,396,634.55,352.6C552.55,323.05,511.07,389.35,507.18,396Z"/><path class="cls-2" d="M634.55,352.6,507.18,396c-.2.34-.3.53-.3.53,86,36.92,127.9-43.8,127.9-43.8Z"/><path class="cls-3" d="M121.34,409.1.3,295.37C107.54,304,120.34,399.7,121.34,409.1Z"/><path class="cls-4" d="M.3,295.37l121,113.73c0,.48.07.75.07.75C5.9,407.46,0,295.35,0,295.35Z"/><path class="cls-3" d="M146.3,412.09,12.7,428C73.9,365.93,140,407.82,146.3,412.09Z"/><path class="cls-4" d="M12.7,428l133.6-15.9c.33.22.5.35.5.35C85.18,482.87,12.53,428.16,12.53,428.16Z"/><path class="cls-5" d="M107,186.85H520a0,0,0,0,1,0,0V438.24a20.34,20.34,0,0,1-20.34,20.34H127.34A20.34,20.34,0,0,1,107,438.24V186.85a0,0,0,0,1,0,0Z" transform="translate(-57.73 68.53) rotate(-11.43)"/><polygon class="cls-6" points="495.56 180.94 96.85 293.16 87.88 248.77 495.56 180.94"/><polygon class="cls-5" points="149.81 193.7 106 259.7 174.4 245.87 218.21 179.87 149.81 193.7"/><polygon class="cls-7" points="218.21 179.87 174.4 245.87 242.81 232.04 286.61 166.04 218.21 179.87"/><polygon class="cls-7" points="69.23 209.99 80.33 264.89 106 259.7 149.81 193.7 69.23 209.99"/><polygon class="cls-7" points="448.01 190.55 503.84 179.26 492.74 124.36 491.81 124.55 448.01 190.55"/><polygon class="cls-5" points="286.61 166.04 242.81 232.04 311.21 218.21 355.01 152.21 286.61 166.04"/><polygon class="cls-5" points="423.41 138.38 379.61 204.38 448.01 190.55 491.81 124.55 423.41 138.38"/><polygon class="cls-7" points="355.01 152.21 311.21 218.21 379.61 204.38 423.41 138.38 355.01 152.21"/><polygon class="cls-5" points="134.22 137.26 104.67 210.76 168.86 183.38 198.41 109.89 134.22 137.26"/><polygon class="cls-7" points="198.41 109.89 168.86 183.38 233.05 156 262.6 82.51 198.41 109.89"/><polygon class="cls-7" points="58.6 169.52 80.57 221.04 104.67 210.76 134.22 137.26 58.6 169.52"/><polygon class="cls-7" points="425.62 73.87 478.02 51.52 456.04 0 455.17 0.37 425.62 73.87"/><polygon class="cls-5" points="262.6 82.51 233.05 156 297.24 128.63 326.79 55.13 262.6 82.51"/><polygon class="cls-5" points="390.98 27.75 361.43 101.25 425.62 73.87 455.17 0.37 390.98 27.75"/><polygon class="cls-7" points="326.79 55.13 297.24 128.63 361.43 101.25 390.98 27.75 326.79 55.13"/><path class="cls-7" d="M94.35,145.69l-20.21,4.09A16.74,16.74,0,0,0,61,169.51l16,79a16.74,16.74,0,0,0,19.73,13.09l53.1-10.73a16.76,16.76,0,0,0,13.09-19.74l-6.71-33.2a16.73,16.73,0,0,0-5-9l-42.14-39.12A16.74,16.74,0,0,0,94.35,145.69Z"/><circle class="cls-8" cx="86.28" cy="170.06" r="6.62"/><circle class="cls-8" cx="101.63" cy="245.99" r="6.62"/><circle class="cls-8" cx="144.73" cy="237.28" r="6.62"/><circle class="cls-9" cx="316.15" cy="335.69" r="62.77"/><polygon class="cls-10" points="286.57 309 299.26 371.78 353.92 328.06 286.57 309"/></g></g></svg>