<svg xmlns="http://www.w3.org/2000/svg" viewBox="0 0 99.07 123.2"><defs><style>.cls-1{fill:#4086f4;}.cls-2{fill:#4175df;}.cls-3{fill:#80aef8;}.cls-4{fill:#fff5f5;}.cls-5{fill:#e3e7ea;}</style></defs><title>lesson-doc</title><g id="Layer_2" data-name="Layer 2"><g id="Assignment"><path class="cls-1" d="M99,46.18,78.5,34.53,77.56,11,33.53.28A9.71,9.71,0,0,0,21.8,7.42L.28,95.89a9.71,9.71,0,0,0,7.14,11.73l62.9,15.31a9.72,9.72,0,0,0,11.73-7.14Z"/><path class="cls-2" d="M99,46.18,82.05,115.79a9.72,9.72,0,0,1-11.73,7.14l-31.45-7.65L65,7.93,77.56,11l.94,23.54Z"/><path class="cls-3" d="M99,46.18,77,40.82A6.48,6.48,0,0,1,72.21,33l5.35-22a3,3,0,0,1,2,1.48l19,31.28A3,3,0,0,1,99,46.18Z"/><path class="cls-4" d="M71.56,63.05,33.82,53.87a3.24,3.24,0,0,1,1.53-6.29l37.74,9.18a3.24,3.24,0,1,1-1.53,6.29Z"/><path class="cls-4" d="M68.5,75.63,30.76,66.45a3.24,3.24,0,0,1,1.53-6.29L70,69.34a3.24,3.24,0,1,1-1.53,6.29Z"/><path class="cls-4" d="M65.44,88.21,27.7,79a3.24,3.24,0,0,1,1.53-6.29L67,81.92a3.24,3.24,0,1,1-1.53,6.29Z"/><path class="cls-4" d="M49.8,97.73,24.64,91.61a3.24,3.24,0,0,1,1.53-6.29l25.16,6.12a3.24,3.24,0,0,1-1.53,6.29Z"/><path class="cls-5" d="M43.51,96.2l6.29,1.53a3.24,3.24,0,0,0,1.53-6.29L45,89.91Z"/><path class="cls-5" d="M46.57,83.62l18.87,4.59A3.24,3.24,0,1,0,67,81.92L48.1,77.33Z"/><path class="cls-5" d="M49.63,71,68.5,75.63A3.24,3.24,0,1,0,70,69.34L51.16,64.75Z"/><path class="cls-5" d="M52.69,58.46l18.87,4.59a3.24,3.24,0,1,0,1.53-6.29L54.22,52.17Z"/></g></g></svg>