<svg xmlns="http://www.w3.org/2000/svg" viewBox="0 0 137.38 200.11"><defs><style>.cls-1{fill:#53803a;}.cls-2{fill:#3d6a3a;}.cls-3{fill:#63b259;}.cls-4{fill:#65354d;}.cls-5{fill:#a0533b;}</style></defs><title>lesson-plant</title><g id="Layer_2" data-name="Layer 2"><g id="HOME"><path class="cls-1" d="M124.54,81.66c-18.67,25.42-56.11,29.64-56.11,29.64s-7.19-37,11.48-62.41S136,19.25,136,19.25,143.2,56.24,124.54,81.66Z"/><path class="cls-2" d="M46.16,66.46C63.27,83.32,62.34,112,62.34,112S33.66,113.37,16.55,96.5.37,50.94.37,50.94,29.05,49.59,46.16,66.46Z"/><path class="cls-3" d="M88.57,53.7C92,85.05,67.34,113.51,67.34,113.51S37,91.15,33.53,59.81,54.76,0,54.76,0,85.09,22.36,88.57,53.7Z"/><polygon class="cls-4" points="86.25 200.11 21.3 200.11 0 105.34 107.55 105.34 86.25 200.11"/><polygon class="cls-5" points="110.74 200.11 45.79 200.11 36.2 105.34 132.04 105.34 110.74 200.11"/></g></g></svg>