<svg xmlns="http://www.w3.org/2000/svg" viewBox="0 0 385.81 755.58"><defs><style>.cls-1{fill:#dae7ef;}.cls-2{fill:#c1d5e4;}.cls-3{fill:#dd636e;}.cls-4{fill:#e28086;}.cls-5{fill:#da4a54;}.cls-6{fill:#bcd0df;}.cls-7{fill:#98b9d3;}.cls-8{fill:#eab14d;}.cls-9{fill:#e7a52e;}.cls-10{fill:#aa8080;}.cls-11{fill:#9d6b6b;}</style></defs><title>miktea</title><g id="Layer_2" data-name="Layer 2"><g id="Classroom"><path class="cls-1" d="M295.39,754l-197,1.62a14.06,14.06,0,0,1-14-12l-4.14-28.45,94.15-43.86,138.51,42-3.69,28.52A14,14,0,0,1,295.39,754Z"/><path class="cls-1" d="M222.27,81.17l-61.81.51A134.73,134.73,0,0,0,26.83,217.53L27,240.11l331.29-2.72-.18-22.58A134.75,134.75,0,0,0,222.27,81.17Z"/><path class="cls-2" d="M250.19,83.84a134.39,134.39,0,0,1,46.94,101.1,22.59,22.59,0,0,1-22.4,22.77L27,209.74c-.12,2.58-.18,5.18-.15,7.79l.35,42.85,331.11-23-.18-22.58a134.77,134.77,0,0,0-107.92-131Z"/><path class="cls-1" d="M233,463.68c38.56-.31,107.8-29.86,118.67-27.31L355.6,296.9l-182.4-24L30.69,299.56,36.8,437.34C47.69,439.9,57.41,465.13,78.86,465Z"/><path class="cls-2" d="M293.76,297.4l-3.76,135c5.4-.72-.45,17.2,7.64,17.13,21.42-.18,43.2-15.67,54.07-13.12L355.6,296.9l-32-11.62Z"/><path class="cls-3" d="M169.18,298.43l1.29,157.24c20.58,1.53,27.41,6.61,48,8.13L217,286.16Z"/><path class="cls-4" d="M208.51,0,172.88.29a6.15,6.15,0,0,0-6.1,6.2l.62,75.13,48,13.23L214.71,6.1a6.15,6.15,0,0,0-6.2-6.1Z"/><rect class="cls-3" x="168.04" y="81.42" width="47.93" height="157.33" transform="translate(-1.31 1.58) rotate(-0.47)"/><path class="cls-5" d="M216.37,208.19l-47.93.39.25,30.37,48,6.21Z"/><path class="cls-6" d="M377.2,296.72l-368.11,3a8.67,8.67,0,0,1-8.74-8.6L0,249a8.68,8.68,0,0,1,8.6-8.76l368.12-3a8.68,8.68,0,0,1,8.74,8.61l.35,42.12a8.68,8.68,0,0,1-8.61,8.75Z"/><path class="cls-7" d="M63,270.56a11.4,11.4,0,0,0,11.3-11.48l-.16-19.36-22.78.19.16,19.35A11.39,11.39,0,0,0,63,270.56Z"/><path class="cls-7" d="M257.85,269a11.4,11.4,0,0,0,11.29-11.48L269,238.13l-22.78.18.16,19.36A11.39,11.39,0,0,0,257.85,269Z"/><path class="cls-7" d="M192.9,269.49A11.39,11.39,0,0,0,204.2,258L204,238.66l-22.77.19.16,19.35a11.39,11.39,0,0,0,11.47,11.29Z"/><path class="cls-7" d="M128,270a11.38,11.38,0,0,0,11.29-11.48l-.16-19.35-22.77.19.15,19.35A11.4,11.4,0,0,0,128,270Z"/><path class="cls-7" d="M311.14,237.78l.16,19.35a11.39,11.39,0,0,0,22.77-.18l-.16-19.36Z"/><path class="cls-8" d="M309.88,431.1c-38.55.32-38.47,9.95-77,10.26s-38.62-9.31-77.16-9-38.48,9.94-77,10.26c-21.46.17-31-2.73-41.88-5.29L47.73,684a32.59,32.59,0,0,0,32.83,31.15l232-1.9a32.62,32.62,0,0,0,32.32-31.69l6.84-245.15c-10.87-2.55-20.41-5.44-41.83-5.27Z"/><path class="cls-9" d="M309.88,431.1A160.08,160.08,0,0,0,290,432.36l-2.83,101.43A154.85,154.85,0,0,1,133.66,684.31L47.8,685a32.59,32.59,0,0,0,32.76,30.1l232-1.9a32.62,32.62,0,0,0,32.32-31.69l6.84-245.15c-10.87-2.55-20.41-5.44-41.83-5.27Z"/><path class="cls-10" d="M137.75,635.32a29.08,29.08,0,1,1-29.32-28.84,29.08,29.08,0,0,1,29.32,28.84Z"/><path class="cls-10" d="M195.91,634.85A29.08,29.08,0,1,1,166.59,606a29.08,29.08,0,0,1,29.32,28.84Z"/><path class="cls-10" d="M254.08,634.37a29.09,29.09,0,1,1-29.33-28.84,29.09,29.09,0,0,1,29.33,28.84Z"/><path class="cls-11" d="M213.55,661.36a29.12,29.12,0,0,0,40.53-27,30,30,0,0,0-1.11-7.75,155.48,155.48,0,0,1-39.42,34.74Z"/><path class="cls-10" d="M167.24,685.31a29.08,29.08,0,1,1-29.32-28.84,29.08,29.08,0,0,1,29.32,28.84Z"/><path class="cls-11" d="M167.24,685.31a28.56,28.56,0,0,0-.44-4.84,156,156,0,0,1-33.13,3.84l-24.57.2c0,.42,0,.85,0,1.28a29.08,29.08,0,1,0,58.16-.48Z"/><path class="cls-10" d="M109.08,685.79A29.08,29.08,0,1,1,79.76,657a29.08,29.08,0,0,1,29.32,28.84Z"/><path class="cls-11" d="M109.08,685.79c0-.43,0-.85,0-1.28l-58.1.47c0,.43,0,.86,0,1.29a29.08,29.08,0,0,0,23.81,28.37,34.07,34.07,0,0,0,5.67.47,29.08,29.08,0,0,0,28.68-29.32Z"/><path class="cls-11" d="M283.57,684.36a29.09,29.09,0,1,1-29.32-28.84,29.08,29.08,0,0,1,29.32,28.84Z"/><path class="cls-10" d="M225.4,684.83A29.08,29.08,0,1,1,196.08,656a29.08,29.08,0,0,1,29.32,28.84Z"/><path class="cls-11" d="M225.4,684.83a29,29,0,0,0-12.07-23.34,153.81,153.81,0,0,1-45.7,18.78,30.07,30.07,0,0,0-.39,5,29.08,29.08,0,1,0,58.16-.48Z"/><path class="cls-10" d="M166.42,584.86A29.08,29.08,0,1,1,137.1,556a29.09,29.09,0,0,1,29.32,28.85Z"/><path class="cls-10" d="M108.26,585.34a29.09,29.09,0,1,1-29.32-28.85,29.08,29.08,0,0,1,29.32,28.85Z"/><path class="cls-10" d="M282.74,583.9a29.08,29.08,0,1,1-29.32-28.84,29.08,29.08,0,0,1,29.32,28.84Z"/><path class="cls-11" d="M282.74,583.9a29,29,0,0,0-1.93-10.2,154,154,0,0,1-17,37.71,29.09,29.09,0,0,0,18.94-27.51Z"/><path class="cls-11" d="M312.23,633.89a29.08,29.08,0,1,1-29.31-28.84,29.08,29.08,0,0,1,29.31,28.84Z"/><path class="cls-11" d="M341.73,683.88A29.08,29.08,0,1,1,312.4,655a29.08,29.08,0,0,1,29.33,28.84Z"/><path class="cls-11" d="M340.9,583.43a29.08,29.08,0,1,1-29.32-28.85,29.07,29.07,0,0,1,29.32,28.85Z"/><path class="cls-10" d="M224.58,584.38a29.08,29.08,0,1,1-29.32-28.85,29.08,29.08,0,0,1,29.32,28.85Z"/></g></g></svg>