<svg xmlns="http://www.w3.org/2000/svg" xmlns:xlink="http://www.w3.org/1999/xlink" viewBox="0 0 231.05 207.75"><defs><style>.cls-1{fill:url(#linear-gradient);}.cls-2{fill:url(#linear-gradient-2);}.cls-3{fill:#c7abc9;}.cls-4{fill:#d6bfd1;}.cls-5{fill:#ff956a;}.cls-6{fill:#ffad8c;}.cls-7{fill:#f4e0e6;}.cls-8{fill:#ea552d;}.cls-9{fill:url(#linear-gradient-3);}.cls-10{fill:#dae7ef;}.cls-11{fill:#c1d5e4;}.cls-12{fill:#dd636e;}.cls-13{fill:#e28086;}.cls-14{fill:#da4a54;}.cls-15{fill:#bcd0df;}.cls-16{fill:#98b9d3;}.cls-17{fill:#eab14d;}.cls-18{fill:#e7a52e;}.cls-19{fill:#aa8080;}.cls-20{fill:#9d6b6b;}.cls-21{fill:url(#linear-gradient-4);}</style><linearGradient id="linear-gradient" x1="959.11" y1="-91.74" x2="912.62" y2="-93.26" gradientTransform="matrix(0.97, -0.26, 0.26, 0.97, -752.37, 528.8)" gradientUnits="userSpaceOnUse"><stop offset="0" stop-color="#d6bfd1"/><stop offset="1" stop-color="#f4e0e6"/></linearGradient><linearGradient id="linear-gradient-2" x1="1016.03" y1="-94.14" x2="969.54" y2="-95.66" xlink:href="#linear-gradient"/><linearGradient id="linear-gradient-3" x1="932.97" y1="-166.59" x2="904.83" y2="-167.5" xlink:href="#linear-gradient"/><linearGradient id="linear-gradient-4" x1="-8206.56" y1="6857.71" x2="-8234.71" y2="6856.8" gradientTransform="matrix(-0.1, 0.48, -0.98, -0.2, 6110.37, 5397)" xlink:href="#linear-gradient"/></defs><title>Asset 30</title><g id="Layer_2" data-name="Layer 2"><g id="laboratory"><path class="cls-1" d="M101.4,196.39c.73.42,29.63-12.17,46.38,2s-25.6,8.62-38.57,6.47S101.4,196.39,101.4,196.39Z"/><path class="cls-2" d="M155.82,179.54c.73.42,29.63-12.16,46.38,2s-25.61,8.62-38.57,6.47S155.82,179.54,155.82,179.54Z"/><path class="cls-3" d="M55.12,23.39C77.4,45.84,88.24,71.22,79.31,80.08S45.09,77.92,22.8,55.47-4.81,12.81,4.11,4,32.83.94,55.12,23.39Z"/><path class="cls-4" d="M81,77.78c5.52-10.4-5.28-33.64-25.87-54.39C37.23,5.37,21-1.94,10.61.45,3.8,10,9.76,29.15,30.73,50.28,49,68.71,69.36,79.44,81,77.78Z"/><path class="cls-5" d="M61.63,46C73.21,56,80.15,66.88,77.12,70.39S63.56,72.26,52,62.28,36.61,42,39.63,38.5,50.05,36,61.63,46Z"/><path class="cls-6" d="M49.45,37.89A5.05,5.05,0,0,0,48,39.07c-3,3.51.76,13.8,12.34,23.78a43.92,43.92,0,0,0,14.8,8.82,4.38,4.38,0,0,0,2-1.28C80.15,66.88,73.21,56,61.63,46,56.86,41.85,52.79,39.27,49.45,37.89Z"/><path class="cls-3" d="M176.77,65.53C146.2,57.39,124,41,127.28,28.79s30.64-15.4,61.2-7.26,45.37,22.9,42.13,35.05S207.34,73.67,176.77,65.53Z"/><path class="cls-4" d="M127,31.63c.48,11.76,21.53,26.38,49.78,33.9,24.53,6.53,42.27,4.64,50-2.65,1-11.69-13.74-25.21-42.51-32.87C159.16,23.33,136.19,24.33,127,31.63Z"/><path class="cls-5" d="M159.75,49.32c-15-2.77-26.54-8.71-25.69-13.27s10.76-8.46,25.8-5.68,23.49,9.75,22.65,14.3S174.78,52.1,159.75,49.32Z"/><path class="cls-6" d="M174.34,50.15a5,5,0,0,0,.7-1.77c.84-4.55-7.63-11.53-22.66-14.3a43.71,43.71,0,0,0-17.23-.15,4.41,4.41,0,0,0-1.09,2.12c-.85,4.56,10.66,10.5,25.69,13.27C166,50.47,170.76,50.65,174.34,50.15Z"/><path class="cls-4" d="M210.65,105.57c14.44,54.71-18.29,77.33-62.91,89.12S63.47,203,49,148.25s10-108.61,54.65-120.4S196.2,50.86,210.65,105.57Z"/><path class="cls-7" d="M108.66,26.74C67.14,41,45,93,58.88,145.65s51.17,57.89,93.76,47.68c42.08-12.15,71.92-35.08,58-87.76S151.82,18.68,108.66,26.74Z"/><rect x="84.53" y="70.48" width="8.39" height="14.98" rx="4.19" transform="matrix(0.97, -0.26, 0.26, 0.97, -16.97, 25.23)"/><rect x="150.56" y="53.04" width="8.39" height="14.98" rx="4.19" transform="translate(-10.33 41.52) rotate(-14.79)"/><ellipse class="cls-8" cx="167.53" cy="76.06" rx="11.98" ry="7.79" transform="matrix(0.97, -0.26, 0.26, 0.97, -13.87, 45.29)"/><ellipse class="cls-8" cx="82.96" cy="98.39" rx="11.98" ry="7.79" transform="translate(-22.37 24.44) rotate(-14.79)"/><path class="cls-9" d="M77.9,132.65c1.88-.5,22.48-14.64,26.34-7.66s2.94,13.48-5.55,14.17c-3.48.28-16.69,1.41-19.7,5.2"/><path d="M130.58,106.29a10,10,0,0,1-8.45-2.43,3.43,3.43,0,0,1,4.6-5.09,3.13,3.13,0,0,0,2.66.77,3.17,3.17,0,0,0,2.32-1.79,3.43,3.43,0,0,1,6.23,2.86A10,10,0,0,1,130.58,106.29Z"/><path class="cls-8" d="M125.24,105.78A10,10,0,0,0,136,103.41a7.69,7.69,0,0,0-10.78,2.37Z"/><path class="cls-10" d="M224.36,110.06l-5.11,23.37a1.7,1.7,0,0,1-1.8,1.33l-3.47-.27-2.67-12.33,8.7-15.27,3.27,1.21a1.7,1.7,0,0,1,1.08,2Z"/><path class="cls-10" d="M142.75,100.63l-1.6,7.33a16.36,16.36,0,0,0,12.49,19.47l2.68.58,8.58-39.29-2.68-.58a16.36,16.36,0,0,0-19.47,12.49Z"/><path class="cls-11" d="M143.82,97.39a16.32,16.32,0,0,1,13.23-2.84,2.75,2.75,0,0,1,2.09,3.27l-6.42,29.38.92.23,5.08,1.11,6.18-39.82-2.68-.58a16.36,16.36,0,0,0-18.4,9.25Z"/><path class="cls-10" d="M188.32,109.64c1-4.58-.63-13.57,0-14.79l-16.41-4.21-7.75,21-.67,17.59,16.48,3c.59-1.22,3.84-1.69,4.4-4.24Z"/><path class="cls-11" d="M170.27,98l15.88,4.07c.06-.66,2,.52,2.23-.44.55-2.54-.7-5.54-.1-6.76l-16.41-4.21-2.23,3.48Z"/><path class="cls-12" d="M167,112.75l18.65,4.08c.73-2.4,1.52-3.07,2.25-5.47l-21.06-4.6Z"/><path class="cls-13" d="M131.34,99.76l-.92,4.22a.87.87,0,0,0,.77.94l11.3,2.47,3.29-5.24-13.35-2.92a.88.88,0,0,0-1.09.53Z"/><rect class="cls-12" x="148.37" y="96.78" width="5.82" height="19.1" transform="translate(15.1 231.42) rotate(-77.67)"/><path class="cls-14" d="M157.63,104.74l-1.24,5.68,3.6.79,2-5.51Z"/><path class="cls-15" d="M172.43,88.08l-9.54,43.66a1,1,0,0,1-1.25.8l-5-1.09a1,1,0,0,1-.8-1.25l9.54-43.66a1,1,0,0,1,1.25-.8l5,1.09a1,1,0,0,1,.8,1.25Z"/><path class="cls-16" d="M160.89,124.57a1.39,1.39,0,0,0-1.06-1.65l-2.29-.5-.59,2.7,2.29.5a1.38,1.38,0,0,0,1.65-1.05Z"/><path class="cls-16" d="M165.94,101.46a1.38,1.38,0,0,0-1.06-1.64l-2.29-.5L162,102l2.29.5a1.39,1.39,0,0,0,1.65-1.06Z"/><path class="cls-16" d="M164.25,109.17a1.38,1.38,0,0,0-1.05-1.65l-2.3-.5-.59,2.7,2.3.5a1.38,1.38,0,0,0,1.64-1Z"/><path class="cls-16" d="M162.57,116.87a1.39,1.39,0,0,0-1-1.65l-2.3-.5-.59,2.7,2.3.5a1.37,1.37,0,0,0,1.64-1Z"/><path class="cls-16" d="M163.68,94.32l2.29.5a1.38,1.38,0,0,0,.6-2.7l-2.3-.5Z"/><path class="cls-17" d="M186.53,99.66c-1,4.58.14,4.83-.86,9.4s-2.14,4.32-3.14,8.89.15,4.82-.85,9.39a17.68,17.68,0,0,1-1.75,4.82l29.48,5.34a4,4,0,0,0,4.57-3.05l6-27.52a4,4,0,0,0-2.88-4.67l-28.84-7.41a17.72,17.72,0,0,0-1.75,4.81Z"/><path class="cls-18" d="M186.53,99.66a21.56,21.56,0,0,0-.39,2.39l11.94,3.06a18.81,18.81,0,0,1,13.69,22.22l-2.23,10.19a4,4,0,0,0,4.44-3.07l6-27.52a4,4,0,0,0-2.88-4.67l-28.84-7.41a17.72,17.72,0,0,0-1.75,4.81Z"/><path class="cls-19" d="M206.08,125.53a3.53,3.53,0,1,1-4.21,2.7,3.53,3.53,0,0,1,4.21-2.7Z"/><path class="cls-19" d="M207.58,118.63a3.53,3.53,0,1,1-4.2,2.7,3.53,3.53,0,0,1,4.2-2.7Z"/><path class="cls-19" d="M209.09,111.74a3.53,3.53,0,1,1-4.2,2.69,3.53,3.53,0,0,1,4.2-2.69Z"/><path class="cls-20" d="M211.2,117.26a3.53,3.53,0,0,0-2.11-5.52,3.36,3.36,0,0,0-.94-.08,19.17,19.17,0,0,1,3,5.6Z"/><path class="cls-19" d="M212.79,123.38a3.53,3.53,0,1,1-4.2,2.7,3.53,3.53,0,0,1,4.2-2.7Z"/><path class="cls-20" d="M212.79,123.38a4,4,0,0,0-.59-.07,19.09,19.09,0,0,1-.43,4l-.64,2.92.15,0a3.53,3.53,0,0,0,1.51-6.9Z"/><path class="cls-19" d="M211.28,130.28a3.53,3.53,0,1,1-4.2,2.7,3.54,3.54,0,0,1,4.2-2.7Z"/><path class="cls-20" d="M211.28,130.28l-.15,0-1.51,6.89.15,0a3.53,3.53,0,0,0,4-2.05,3.63,3.63,0,0,0,.21-.66,3.54,3.54,0,0,0-2.7-4.19Z"/><path class="cls-20" d="M215.8,109.59a3.53,3.53,0,1,1-4.2,2.69,3.54,3.54,0,0,1,4.2-2.69Z"/><path class="cls-19" d="M214.3,116.49a3.53,3.53,0,1,1-4.21,2.69,3.52,3.52,0,0,1,4.21-2.69Z"/><path class="cls-20" d="M214.3,116.49a3.51,3.51,0,0,0-3.09.8,18.6,18.6,0,0,1,1,5.91,2.88,2.88,0,0,0,.59.18,3.53,3.53,0,0,0,1.51-6.89Z"/><path class="cls-19" d="M200.87,120.78a3.53,3.53,0,1,1-4.2,2.7,3.53,3.53,0,0,1,4.2-2.7Z"/><path class="cls-19" d="M199.37,127.68a3.53,3.53,0,1,1-4.21,2.69,3.53,3.53,0,0,1,4.21-2.69Z"/><path class="cls-19" d="M203.89,107a3.53,3.53,0,1,1-4.2,2.69,3.52,3.52,0,0,1,4.2-2.69Z"/><path class="cls-20" d="M203.89,107a3.36,3.36,0,0,0-1.26,0,19,19,0,0,1,4,3,3.53,3.53,0,0,0-2.75-3Z"/><path class="cls-20" d="M210.6,104.84a3.53,3.53,0,1,1-4.2,2.69,3.53,3.53,0,0,1,4.2-2.69Z"/><path class="cls-20" d="M217.31,102.69a3.53,3.53,0,1,1-4.2,2.7,3.54,3.54,0,0,1,4.2-2.7Z"/><path class="cls-20" d="M205.4,100.09a3.53,3.53,0,1,1-4.21,2.69,3.52,3.52,0,0,1,4.21-2.69Z"/><path class="cls-19" d="M202.38,113.88a3.53,3.53,0,1,1-4.2,2.7,3.54,3.54,0,0,1,4.2-2.7Z"/><path class="cls-21" d="M193.88,91.16c-.19.93,5.77,13.87-2,13.26s-13.45-3-11.16-6.74c.93-1.52,4.44-7.32,2-9.75"/></g></g></svg>