<svg xmlns="http://www.w3.org/2000/svg" viewBox="0 0 285.66 224.11"><defs><style>.cls-1{fill:#f6c358;}.cls-2{fill:#ebf0f3;}.cls-3{fill:#fcd462;}.cls-4{font-size:43.57px;fill:#fff;font-family:AvertaStdCY-Bold, Averta Std CY;font-weight:700;}</style></defs><title>work-folder</title><g id="Layer_2" data-name="Layer 2"><g id="Classroom"><path class="cls-1" d="M18,0H86.33A12.51,12.51,0,0,1,97.17,6.27l11.24,15.36a12.52,12.52,0,0,0,10.84,6.26H285.66V203.27A16.67,16.67,0,0,1,269,219.94H16.68A16.67,16.67,0,0,1,0,203.27V47.35a125.24,125.24,0,0,1,5.9-38h0A12.52,12.52,0,0,1,18,0Z"/><rect class="cls-2" x="26" y="25.03" width="219.58" height="92.76"/><path class="cls-3" d="M273.15,8.34H204.31a12.51,12.51,0,0,0-11.38,7.31L181.15,41.43a12.52,12.52,0,0,1-11.38,7.31H0v158.7a16.67,16.67,0,0,0,16.68,16.67H269a16.67,16.67,0,0,0,16.68-16.67V20.85A12.51,12.51,0,0,0,273.15,8.34Z"/><text class="cls-4" transform="translate(41.96 94.14)">lesson</text></g></g></svg>